<?xml version="1.0" encoding="utf-8"?>
<!-- Generator: Adobe Illustrator 19.1.0, SVG Export Plug-In . SVG Version: 6.00 Build 0)  -->
<svg version="1.1" id="Layer_1" xmlns="http://www.w3.org/2000/svg" xmlns:xlink="http://www.w3.org/1999/xlink" x="0px" y="0px"
	 viewBox="-559 141 800 800" style="enable-background:new -559 141 800 800;" xml:space="preserve">
<style type="text/css">
	.st0{fill:#FFFFFF;}
	.st1{fill:#D5D6D4;}
	.st2{fill:#7F7F7F;}
	.st3{fill:#030F35;}
	.st4{opacity:0.48;fill:#061C49;enable-background:new    ;}
	.st5{fill:none;stroke:#DDDDDB;stroke-linecap:round;stroke-miterlimit:10;}
	.st6{fill:#0E2547;}
	.st7{fill:#081944;}
	.st8{fill:#818182;}
	.st9{fill:#000207;}
	.st10{fill:#474747;}
	.st11{opacity:0.29;fill:#474747;enable-background:new    ;}
	.st12{opacity:0.48;fill:#474747;enable-background:new    ;}
	.st13{opacity:0.38;fill:#9B9B9B;enable-background:new    ;}
	.st14{fill:#E0ADAD;}
	.st15{fill:#B7B6B6;}
	.st16{fill:#939393;}
	.st17{fill:#F2F2F2;}
	.st18{fill:none;}
	.st19{fill:#AF4545;}
	.st20{font-family:'MyriadPro-Regular';}
	.st21{font-size:2.0364px;}
	.st22{opacity:0.1;fill:#CCCCCC;enable-background:new    ;}
	.st23{opacity:0.19;fill:#7F7F7F;enable-background:new    ;}
	.st24{fill:#F4F4F4;}
	.st25{fill:#FFFFFF;stroke:#000000;stroke-width:0.5;stroke-miterlimit:10;}
	.st26{fill:#474646;stroke:#000000;stroke-width:0.5;stroke-miterlimit:10;}
	.st27{fill:#FFFFFF;stroke:#000000;stroke-miterlimit:10;}
	.st28{opacity:0.65;fill:#E8E8E8;enable-background:new    ;}
	.st29{opacity:0.25;fill:none;stroke:#A3A3A3;stroke-width:0.5;stroke-miterlimit:10;enable-background:new    ;}
	.st30{fill:#9E9E9E;}
	.st31{fill:#3F3F3F;}
	.st32{opacity:0.15;fill:#D1D1D1;enable-background:new    ;}
	.st33{opacity:0.13;fill:#E5E5E5;enable-background:new    ;}
	.st34{opacity:0.23;fill:#F7F7F7;enable-background:new    ;}
	.st35{fill:#7A7A7A;}
	.st36{opacity:0.16;fill:#333333;enable-background:new    ;}
	.st37{fill:#0E0E0F;}
	.st38{fill:#282828;}
	.st39{opacity:0.19;fill:#9E9E9E;enable-background:new    ;}
	.st40{opacity:0.84;fill:none;stroke:#FFFFFF;stroke-width:5.000000e-02;stroke-miterlimit:10;enable-background:new    ;}
	.st41{opacity:0.31;fill:none;stroke:#FFFFFF;stroke-width:5.000000e-02;stroke-miterlimit:10;enable-background:new    ;}
	.st42{opacity:0.15;fill:#9E9E9E;enable-background:new    ;}
	.st43{fill:#E0E0E0;}
	.st44{opacity:0.22;fill:#F2F2F2;enable-background:new    ;}
	.st45{fill:#161616;}
	.st46{fill:#333333;}
	.st47{font-size:2.2248px;}
	.st48{fill:#212121;}
	.st49{opacity:0.25;fill:none;stroke:#000000;stroke-width:0.5;stroke-miterlimit:10;enable-background:new    ;}
	.st50{fill:#383838;}
	.st51{fill:#353535;}
	.st52{fill:#C69C6D;}
	.st53{fill:none;stroke:#C69C6D;stroke-width:10;stroke-miterlimit:10;}
	.st54{opacity:0.75;fill:#A67C52;enable-background:new    ;}
	.st55{fill:#DBBD09;}
</style>
<g id="Background">
	<rect x="-559" y="141" class="st0" width="800" height="800"/>
</g>
<g id="cloud">
	<path class="st1" d="M-475.9,331.8c43.2-0.1,86.4-0.2,129.6-0.3c3-1.5,8.2-4.6,12.7-10.3c6-7.6,7.5-15.5,7.9-19.1
		c0.4-3.7,1-13.2-4.5-23.1c-1.7-3.1-6-9.7-14.4-14.4c-6.8-3.8-13.2-4.5-16.6-4.7c-1.8-3.3-4.8-8.1-9.6-12.6
		c-15.7-14.7-36.5-14.1-43.5-13.9c-7.5,0.2-20.3,0.7-32.6,9.3c-3,2.1-12.9,9.3-17.7,22.5c-1.4,3.8-2,7.1-2.3,9.5
		c-2.7,0.2-6.9,0.7-11.5,2.9c-2.3,1.1-7.4,3.5-11.5,9c-4.9,6.6-5.3,13.6-5.4,16.2c-0.1,2.7-0.3,12.5,6.8,20.7
		C-484,328.8-478.6,331-475.9,331.8z"/>
	<path class="st2" d="M-445.7,340c-1.2,1.4-2.1,2.6-2.7,3.4c-2.9,3.8-3.5,5-3.8,6.4c-0.3,1.8,0,2.8,0.2,3.3s0.8,1.8,2.1,2.2
		c1.3,0.3,2.4-0.5,2.8-0.8c0.4-0.3,1.2-1,1.8-2.7c0.7-1.9,0.4-3.2,0-7.7C-445.4,343.2-445.6,341.7-445.7,340z"/>
	<path class="st2" d="M-395.7,353c-1.2,1.4-2.1,2.6-2.7,3.4c-2.9,3.8-3.5,5-3.8,6.4c-0.3,1.8,0,2.8,0.2,3.3s0.8,1.8,2.1,2.2
		c1.3,0.3,2.4-0.5,2.8-0.8c0.4-0.3,1.2-1,1.8-2.7c0.7-1.9,0.4-3.2,0-7.7C-395.4,356.2-395.6,354.7-395.7,353z"/>
	<path class="st2" d="M-376.7,342c-1.2,1.4-2.1,2.6-2.7,3.4c-2.9,3.8-3.5,5-3.8,6.4c-0.3,1.8,0,2.8,0.2,3.3s0.8,1.8,2.1,2.2
		c1.3,0.3,2.4-0.5,2.8-0.8c0.4-0.3,1.2-1,1.8-2.7c0.7-1.9,0.4-3.2,0-7.7C-376.4,345.2-376.6,343.7-376.7,342z"/>
	<path class="st2" d="M-412.7,342c-1.2,1.4-2.1,2.6-2.7,3.4c-2.9,3.8-3.5,5-3.8,6.4c-0.3,1.8,0,2.8,0.2,3.3s0.8,1.8,2.1,2.2
		c1.3,0.3,2.4-0.5,2.8-0.8c0.4-0.3,1.2-1,1.8-2.7c0.7-1.9,0.4-3.2,0-7.7C-412.4,345.2-412.6,343.7-412.7,342z"/>
	<path class="st2" d="M-431.7,352c-1.2,1.4-2.1,2.6-2.7,3.4c-2.9,3.8-3.5,5-3.8,6.4c-0.3,1.8,0,2.8,0.2,3.3s0.8,1.8,2.1,2.2
		c1.3,0.3,2.4-0.5,2.8-0.8c0.4-0.3,1.2-1,1.8-2.7c0.7-1.9,0.4-3.2,0-7.7C-431.4,355.2-431.6,353.7-431.7,352z"/>
</g>
<g id="rainjacket">
	<g>
		<path class="st3" d="M-437,639.7c-2.4-5.3-5.9-14.4-6.3-26c-0.4-10-1-23.5,8.6-33.6c9.1-9.7,21.8-10.2,24.8-10.2
			c3.4,0,15.4,0.3,24.5,9.2c9.4,9.1,9.8,21.3,10.2,31.4c0.5,12.1-2.4,22-4.8,28.2c9.7,3,17.2,6.8,22.4,9.8
			c7.4,4.3,13.8,8.1,19.2,15.4c4,5.4,5.8,10.4,6.7,13.1c16.1,46.3,24.2,69.5,27.4,89.4c2.8,17.4,5.2,40.8,4.2,68.6
			c-9.8,0-19.6,0.1-29.4,0.1c-0.1-19-1.9-41.9-7.4-67.1c-2.9-13.4-6.4-25.6-10.1-36.6c1.9,45.7,3.7,91.4,5.6,137.1
			c-41.6,0.3-83.3,0.7-124.9,1c0.6-46.2,1.3-92.4,1.9-138.7c-2.1,6.1-4.1,12.8-6,19.9c0,0-3.1,11.8-5,22.7
			c-4.4,24.8-3.4,52.7-3.1,60.5c-9.9,0-19.9,0.1-29.8,0.1c-0.2-8-0.3-18.9,0-31.7c0.1-1.8,0.4-14.3,1.3-26.1c0,0,3.2-40.5,24.4-101
			c1-2.8,3.1-8.5,8.2-13.9c3.8-4,7.6-6,12.7-8.7C-452.6,647.7-444.3,643.4-437,639.7z"/>
		<path class="st1" d="M-426.6,635.1c-2.1-2-3.4-3.8-4.3-5.2c-0.7-1.1-2.4-3.8-3.7-7.7c-2-6.1-1.9-11.2-1.6-16.8
			c0.2-5.5,0.3-8.3,1.7-11.4c2.3-5.3,6.4-8.1,8.1-9.3c6-4.1,12-4.3,16.2-4.5c3.4-0.1,9.4-0.3,16.1,2.9c2.5,1.2,6.3,3.1,9.3,7.4
			c3,4.2,3.6,8.4,4,11.1c0.5,3.5,0.3,6-0.2,11.1c-0.2,1.8-0.7,6.7-2.5,13c-1.6,5.8-2.8,7.4-3.2,8c-2.1,2.8-4.7,4.1-6.8,5.2
			c-3.9,2-7.4,2.4-9.9,2.7c-3.5,0.4-6.2,0.2-7.4,0.1c-2-0.2-5.3-0.5-9.1-2.2C-421.2,638.7-423.9,637.5-426.6,635.1z"/>
		<path class="st4" d="M-411.1,641.5c0,75.8,0.1,151.6,0.1,227.5l7-0.1c0-75.8-0.1-151.6-0.1-227.5c-1,0.1-2.2,0.2-3.4,0.2
			C-408.8,641.7-410,641.6-411.1,641.5z"/>
		<path class="st5" d="M-419.9,646.3c-2,1.2-3.4,2.6-4.2,3.6c-1,1.1-2,2.3-2.7,4.2c-0.3,0.8-1,2.8-0.6,5.3c0.6,3,2.6,5.1,3.3,5.9
			c1.5,1.6,2.5,1.9,2.8,3.2s-0.3,2.6-0.9,3.4"/>
		<path class="st5" d="M-396.2,646.2c1.2,0.2,3.7,0.7,5.9,2.7c0.9,0.8,2.6,2.4,2.9,4.9c0,0.4,0.3,2.3-0.8,4.3s-2.3,1.8-3.1,3.4
			c-0.8,1.7-0.5,4.1,0.8,5.8c1.4,1.8,3.6,2.7,5.9,2.3"/>
		<g>
			<path class="st6" d="M-448.8,731.6c-2.9,11.9-5.8,23.9-8.7,35.8c2.9,0.8,5.8,1.7,8.7,2.5c2.8-12,5.6-24,8.4-36
				C-443.1,733.2-446,732.4-448.8,731.6z"/>
			<path class="st7" d="M-448.9,732.1c-2.8,11.6-5.6,23.3-8.5,34.9c2.7,0.7,5.5,1.5,8.2,2.2c2.7-11.7,5.5-23.3,8.2-35L-448.9,732.1z
				"/>
			<path class="st8" d="M-448.8,733.2c-0.1-0.3,0.1-0.7,0.5-0.7c0.3,0,0.6,0.3,0.6,0.6c0,0.2-0.2,0.5-0.5,0.5
				C-448.5,733.6-448.7,733.5-448.8,733.2z"/>
			<path class="st9" d="M-447.9,733.1c0,0.2-0.2,0.4-0.4,0.4c-0.2,0-0.4-0.2-0.4-0.4s0.2-0.4,0.4-0.4
				C-448.1,732.7-447.8,732.9-447.9,733.1z"/>
			<path class="st0" d="M-448.7,733.3c0,0.1,0.2,0.2,0.3,0.2c0.2,0,0.3-0.2,0.3-0.3s-0.2-0.2-0.4-0.2
				C-448.6,733-448.7,733.1-448.7,733.3z"/>
			<path class="st8" d="M-457,766.6c0-0.3,0.2-0.5,0.5-0.5s0.5,0.3,0.4,0.6c-0.1,0.2-0.3,0.3-0.5,0.3
				C-456.8,767-457,766.8-457,766.6z"/>
			<path class="st9" d="M-456.2,766.7c0,0.2-0.2,0.3-0.4,0.3c-0.2,0-0.3-0.2-0.3-0.4s0.2-0.3,0.4-0.3S-456.2,766.5-456.2,766.7z"/>
			<path class="st0" d="M-457,766.7c0,0.1,0.1,0.2,0.2,0.2c0.1,0,0.3-0.1,0.3-0.2c0-0.1-0.1-0.2-0.3-0.2
				C-456.9,766.5-457,766.6-457,766.7z"/>
		</g>
		<g>
			<path class="st6" d="M-361,732.6c2.9,11.9,5.8,23.9,8.7,35.8c-2.9,0.8-5.8,1.7-8.7,2.5c-2.8-12-5.6-24-8.4-36
				C-366.6,734.2-363.8,733.4-361,732.6z"/>
			<path class="st7" d="M-360.9,733.1c2.8,11.6,5.6,23.3,8.5,34.9c-2.7,0.7-5.5,1.5-8.2,2.2c-2.7-11.7-5.5-23.3-8.2-35L-360.9,733.1
				z"/>
			<path class="st8" d="M-361,734.2c0.1-0.3-0.1-0.7-0.5-0.7c-0.3,0-0.6,0.3-0.6,0.6c0,0.2,0.2,0.5,0.5,0.5S-361,734.5-361,734.2z"
				/>
			<path class="st9" d="M-361.9,734.1c0,0.2,0.2,0.4,0.4,0.4s0.4-0.2,0.4-0.4s-0.2-0.4-0.4-0.4
				C-361.7,733.7-361.9,733.9-361.9,734.1z"/>
			<path class="st0" d="M-361.1,734.3c0,0.1-0.2,0.2-0.3,0.2c-0.2,0-0.3-0.2-0.3-0.3s0.2-0.2,0.4-0.2
				C-361.1,734-361,734.1-361.1,734.3z"/>
			<path class="st8" d="M-352.7,767.6c0-0.3-0.2-0.5-0.5-0.5c-0.3,0-0.5,0.3-0.4,0.6c0.1,0.2,0.3,0.3,0.5,0.3
				C-352.9,768-352.8,767.8-352.7,767.6z"/>
			<path class="st9" d="M-353.6,767.7c0,0.2,0.2,0.3,0.4,0.3s0.3-0.2,0.3-0.4s-0.2-0.3-0.4-0.3
				C-353.5,767.3-353.6,767.5-353.6,767.7z"/>
			<path class="st0" d="M-352.8,767.7c0,0.1-0.1,0.2-0.2,0.2c-0.1,0-0.3-0.1-0.3-0.2c0-0.1,0.1-0.2,0.3-0.2
				C-352.9,767.5-352.8,767.6-352.8,767.7z"/>
		</g>
		<g>
			<path d="M-405.9,645.9c0,0.9-0.7,1.7-1.7,1.7c-1,0.1-1.9-0.8-1.9-1.8s0.9-1.8,1.9-1.7C-406.6,644.2-405.9,645-405.9,645.9z"/>
			<path class="st0" d="M-406.2,645.4c-0.1-0.6-0.6-0.9-1.1-1c-0.7-0.2-1.7,0.2-1.8,0.9s0.6,1.4,1.4,1.4
				C-406.9,646.7-406.2,646.1-406.2,645.4z"/>
			<path class="st10" d="M-406,646.2c-0.1,0.7-0.8,1.3-1.7,1.2c-0.7,0-1.3-0.5-1.5-1.1c-0.3-0.8,0.3-1.7,1-1.9
				C-407.2,644.1-405.9,645.2-406,646.2z"/>
			<path class="st11" d="M-406.6,646.2c0,0.6-0.5,1.1-1.1,1.2c-0.7,0.1-1.5-0.5-1.4-1.1c0-0.5,0.6-1,1.1-1
				C-407.4,645.1-406.6,645.5-406.6,646.2z"/>
		</g>
		<g>
			<path d="M-406.5,651.5c0.7,0.6,0.8,1.6,0.3,2.4c-0.6,0.8-1.8,0.9-2.6,0.3c-0.7-0.6-0.8-1.8-0.1-2.5
				C-408.3,651-407.2,650.9-406.5,651.5z"/>
			<path class="st0" d="M-407.1,651.5c-0.4-0.3-1.1-0.1-1.1-0.1c-0.4,0.1-0.6,0.4-0.7,0.6c-0.1,0.2-0.3,0.4-0.3,0.8
				c0,0.1,0,0.5,0.2,0.7c0.4,0.5,1.5,0.5,2-0.2C-406.5,652.8-406.6,651.8-407.1,651.5z"/>
			<path class="st10" d="M-406.4,651.8c0.5,0.5,0.4,1.5-0.1,2.1c-0.4,0.5-1.2,0.7-1.8,0.4c-0.8-0.4-1-1.4-0.7-2.1
				C-408.5,651.3-407.1,651.1-406.4,651.8z"/>
			<path class="st11" d="M-406.8,652.2c0.5,0.4,0.5,1.1,0.2,1.6c-0.4,0.6-1.3,0.8-1.8,0.4c-0.4-0.4-0.4-1-0.1-1.5
				C-408.1,652.1-407.3,651.8-406.8,652.2z"/>
		</g>
		<g>
			<path d="M-406.5,689.5c0.7,0.6,0.8,1.6,0.3,2.4c-0.6,0.8-1.8,0.9-2.6,0.3c-0.7-0.6-0.8-1.8-0.1-2.5
				C-408.3,689-407.2,688.9-406.5,689.5z"/>
			<path class="st0" d="M-407.1,689.5c-0.4-0.3-1-0.2-1.1-0.1c-0.1,0-0.6,0.2-0.9,0.6c-0.2,0.4-0.1,0.8-0.1,1c0,0.1,0.1,0.6,0.5,0.8
				c0.5,0.3,1.2,0.1,1.6-0.3C-406.5,690.8-406.6,689.9-407.1,689.5z"/>
			<path class="st12" d="M-406.4,689.8c0.5,0.6,0.4,1.5-0.1,2.1c-0.6,0.6-1.7,0.6-1.8,0.4c-0.1-0.2,0.2-0.3,0.4-0.8
				c0.5-1-0.1-1.8,0.3-2.1C-407.3,689.2-406.7,689.5-406.4,689.8z"/>
			<path class="st10" d="M-406.5,689.8c0.4,0.5,0.4,1.1,0.3,1.2c0,0.1-0.1,0.5-0.4,0.9c-0.2,0.2-0.7,0.5-0.9,0.4
				c-0.1-0.1,0-0.4,0-0.9c0.1-1.2-0.4-1.8-0.2-2C-407.3,689.2-406.8,689.5-406.5,689.8z"/>
		</g>
		<g>
			<path d="M-406.5,723.5c0.7,0.6,0.8,1.6,0.3,2.4c-0.6,0.8-1.8,0.9-2.6,0.3c-0.7-0.6-0.8-1.8-0.1-2.5
				C-408.3,723-407.2,722.9-406.5,723.5z"/>
			<path class="st0" d="M-407.1,723.5c-0.4-0.3-1-0.2-1.1-0.1c-0.1,0-0.6,0.2-0.9,0.6c-0.2,0.4-0.1,0.8-0.1,1c0,0.1,0.1,0.6,0.5,0.8
				c0.5,0.3,1.2,0.1,1.6-0.3C-406.5,724.8-406.6,723.9-407.1,723.5z"/>
			<path class="st12" d="M-406.4,723.8c0.5,0.6,0.4,1.5-0.1,2.1c-0.6,0.6-1.7,0.6-1.8,0.4c-0.1-0.2,0.2-0.3,0.4-0.8
				c0.5-1-0.1-1.8,0.3-2.1C-407.3,723.2-406.7,723.5-406.4,723.8z"/>
			<path class="st10" d="M-406.5,723.8c0.4,0.5,0.4,1.1,0.3,1.2c0,0.1-0.1,0.5-0.4,0.9c-0.2,0.2-0.7,0.5-0.9,0.4
				c-0.1-0.1,0-0.4,0-0.9c0.1-1.2-0.4-1.8-0.2-2C-407.3,723.2-406.8,723.5-406.5,723.8z"/>
		</g>
		<g>
			<path d="M-406.5,796.5c0.7,0.6,0.8,1.6,0.3,2.4c-0.6,0.8-1.8,0.9-2.6,0.3c-0.7-0.6-0.8-1.8-0.1-2.5
				C-408.3,796-407.2,795.9-406.5,796.5z"/>
			<path class="st0" d="M-407.1,796.5c-0.4-0.3-1-0.2-1.1-0.1c-0.1,0-0.6,0.2-0.9,0.6c-0.2,0.4-0.1,0.8-0.1,1c0,0.1,0.1,0.6,0.5,0.8
				c0.5,0.3,1.2,0.1,1.6-0.3C-406.5,797.8-406.6,796.9-407.1,796.5z"/>
			<path class="st12" d="M-406.4,796.8c0.5,0.6,0.4,1.5-0.1,2.1c-0.6,0.6-1.7,0.6-1.8,0.4c-0.1-0.2,0.2-0.3,0.4-0.8
				c0.5-1-0.1-1.8,0.3-2.1C-407.3,796.2-406.7,796.5-406.4,796.8z"/>
			<path class="st10" d="M-406.5,796.8c0.4,0.5,0.4,1.1,0.3,1.2c0,0.1-0.1,0.5-0.4,0.9c-0.2,0.2-0.7,0.5-0.9,0.4
				c-0.1-0.1,0-0.4,0-0.9c0.1-1.2-0.4-1.8-0.2-2C-407.3,796.2-406.8,796.5-406.5,796.8z"/>
		</g>
		<g>
			<path d="M-406.5,760.5c0.7,0.6,0.8,1.6,0.3,2.4c-0.6,0.8-1.8,0.9-2.6,0.3c-0.7-0.6-0.8-1.8-0.1-2.5
				C-408.3,760-407.2,759.9-406.5,760.5z"/>
			<path class="st0" d="M-407.1,760.5c-0.4-0.3-1-0.2-1.1-0.1c-0.1,0-0.6,0.2-0.9,0.6c-0.2,0.4-0.1,0.8-0.1,1c0,0.1,0.1,0.6,0.5,0.8
				c0.5,0.3,1.2,0.1,1.6-0.3C-406.5,761.8-406.6,760.9-407.1,760.5z"/>
			<path class="st12" d="M-406.4,760.8c0.5,0.6,0.4,1.5-0.1,2.1c-0.6,0.6-1.7,0.6-1.8,0.4c-0.1-0.2,0.2-0.3,0.4-0.8
				c0.5-1-0.1-1.8,0.3-2.1C-407.3,760.2-406.7,760.5-406.4,760.8z"/>
			<path class="st10" d="M-406.5,760.8c0.4,0.5,0.4,1.1,0.3,1.2c0,0.1-0.1,0.5-0.4,0.9c-0.2,0.2-0.7,0.5-0.9,0.4
				c-0.1-0.1,0-0.4,0-0.9c0.1-1.2-0.4-1.8-0.2-2C-407.3,760.2-406.8,760.5-406.5,760.8z"/>
		</g>
		<g>
			<path d="M-406.1,659.1c0.5,0.8,0.2,1.8-0.5,2.3c-0.8,0.6-2.1,0.3-2.6-0.5s-0.1-2,0.7-2.4C-407.6,658.1-406.6,658.4-406.1,659.1z"
				/>
			<path class="st0" d="M-406.8,658.8c-0.3-0.4-1-0.4-1.4-0.2c-0.7,0.3-1.1,1.2-0.7,1.8c0.3,0.5,1.2,0.7,1.7,0.3
				C-406.5,660.4-406.3,659.3-406.8,658.8z"/>
			<path class="st10" d="M-406.1,659.4c0.3,0.7-0.1,1.6-0.8,1.9c-0.6,0.3-1.4,0.3-1.8-0.2c-0.7-0.7-0.5-2.1,0.5-2.5
				C-407.5,658.3-406.4,658.6-406.1,659.4z"/>
			<path class="st11" d="M-406.6,659.7c0.3,0.5,0.1,1.2-0.4,1.6c-0.6,0.4-1.5,0.3-1.8-0.2c-0.3-0.5,0-1.1,0.4-1.4
				C-407.9,659.2-406.9,659.2-406.6,659.7z"/>
		</g>
		<path class="st13" d="M-427,639.1c2.4-9.4,6.1-16.6,8.9-21.3c1.2-2,7.2-11.6,18.6-20.9c6-4.9,11.6-8.2,15.8-10.4
			c-3.2-1.8-7.8-4-13.7-5.9c-5.6-1.8-8.5-2.7-12.5-2.6c-9,0.2-15.5,5.3-17.8,7.2c-2.2,1.8-6.5,5.4-8.9,11.6
			c-2.3,5.9-1.7,11-1.1,16.1c0.7,6.1,2.7,10.5,4.6,14.9C-430.9,632.5-428.7,636.4-427,639.1z"/>
	</g>
</g>
<g id="heart">
	<g>
		<path class="st14" d="M-88.6,275.1c-1.4,8.8-5,14.6-11.5,24.9c-3.3,5.1-8.1,12-14.7,20h0.1c-13.6,17-29.3,32.4-47.3,48.7
			c-0.1-19.3-0.1-96,0-115c4.1-4.7,10.5-10.8,19.7-15.2c4.9-2.3,11.7-5.5,21-5.1c3.5,0.2,10.7,0.6,18.3,5.7
			c2.3,1.6,9.9,6.9,13.4,17.5C-87,264.5-88,271.3-88.6,275.1z"/>
		<path class="st14" d="M-235.3,275.1c1.4,8.8,5,14.6,11.5,24.9c3.3,5.1,8.1,12,14.7,20h-0.1c13.6,17,29.3,32.4,47.3,48.7
			c0.1-19.3,0.1-96,0-115c-4.1-4.7-10.5-10.8-19.7-15.2c-4.9-2.3-11.7-5.5-21-5.1c-3.5,0.2-10.7,0.6-18.3,5.7
			c-2.3,1.6-9.9,6.9-13.4,17.5C-236.9,264.5-235.9,271.3-235.3,275.1z"/>
	</g>
</g>
<g id="shirt">
	<path class="st15" d="M-130.7,634.5c-18.8,0-37.6,0-56.4,0c2.1-2.9,4.2-5.7,6.3-8.6c14.5,0,29-0.1,43.6-0.1
		C-135,628.7-132.9,631.6-130.7,634.5z"/>
	<polygon class="st16" points="-179.1,633 -139.1,633 -159,655.9 	"/>
	<rect x="-167" y="640" class="st17" width="16" height="6"/>
	<rect x="-162.2" y="642.3" class="st18" width="7.5" height="2.7"/>
	<text transform="matrix(1.0915 0 0 1 -162.2422 643.7617)" class="st19 st20 st21">Demere</text>
	<polygon class="st22" points="-166.7,644 -151,644 -151,640 -166.7,640 	"/>
	<polygon class="st22" points="-166.7,645 -151,645 -151,641 -166.7,641 	"/>
	<rect x="-181" y="627.3" class="st23" width="43.7" height="2.9"/>
	<rect x="-180.8" y="626.1" class="st23" width="43.8" height="2.9"/>
	<path class="st24" d="M-226.1,657.8c-7.2,29.8-14.7,60.1-22.6,90.6c-7.3,28.1-14.7,55.9-22.3,83.2c8.3,2.3,16.6,4.6,24.9,6.9
		c9.8-22.8,19.7-45.6,29.5-68.3c1.1-27.2,2.3-54.4,3.4-81.6c-2.5-7.5-4.7-13-6.1-16.4c-1.5-3.5-2.6-6-3-6.8
		C-223.7,662.2-225,659.7-226.1,657.8z"/>
	<path class="st25" d="M-212.4,697.7"/>
	<path class="st26" d="M-200.6,704.3"/>
	<path class="st24" d="M-186.9,633.4c-13.1,8.1-26.1,16.2-39.2,24.4c2.3,4.7,4.5,10,6.6,15.8c2.3,6.4,3.8,9.6,4.4,14.2
		c0.4,3,0.3,6,0.3,6c0,1.5-0.1,2.4-0.1,2.5c-0.1,0.7-0.5,14.8-2,64.9c-0.7,23.1-1.4,46.2-2.1,69.3c5,1.6,11.8,3.5,20,5
		c4.2,0.7,9.4,1.7,16.1,2c12.9,0.6,13.9-2,25.6-1.7c11.4,0.3,12.1,2.8,22.8,2.3c5.2-0.3,9.1-1.1,15.9-2.4c8-1.6,14.6-3.4,19.1-4.8
		c-0.4-23.8-0.9-47.5-1.3-71.3c-0.9-51.1-1-69.7-0.6-72l0.6-4c0.5-2.7,1.2-5.1,2.2-8c2.6-7.4,7.1-17,7.7-18.3
		c-13.8-8.5-27.6-17-41.4-25.6c-8.8,5.9-17.5,11.9-26.3,17.8"/>
	<path class="st27" d="M-133.4,630.2"/>
	<path class="st27" d="M-133.4,630.2"/>
	<path class="st27" d="M-133.4,631"/>
	<path class="st24" d="M-90.9,657.2c7.2,30.1,14.4,60.3,21.6,90.4c7.5,27.8,15,55.6,22.5,83.4c-8.4,2.5-16.8,5.1-25.1,7.6
		c-10.1-23.2-20.2-46.4-30.4-69.5c-0.9-27.2-1.8-54.5-2.7-81.7c-0.4-2.2-0.7-5.8,0.5-9.9c1-3.4,2.6-5.7,5.1-9.2
		c1.6-2.3,4-5.4,7.4-8.8l0,0l0,0C-91.9,659-91.5,658.2-90.9,657.2z"/>
	<rect x="-161.3" y="648.9" class="st28" width="4.9" height="186.4"/>
	<path class="st29" d="M-182.4,634.7c-7.1,3.7-14.6,7.9-22.2,12.5c-7.2,4.4-14,8.8-20.2,13.1"/>
	<path class="st29" d="M-140.2,631.6c7.7,3.8,15.7,8,24.1,12.9c8.5,5,16.3,10,23.3,14.8"/>
	<path class="st30" d="M-155.3,659.8"/>
	<path class="st31" d="M-102.5,843.3"/>
	<path class="st32" d="M-264.2,807c9.6,2.7,19.2,5.4,28.8,8.1l-10.6,23.4l-24.9-6.9C-268.7,823.4-266.5,815.2-264.2,807z"/>
	<path class="st33" d="M-263,807.3c-1.3,3.6-2.6,7.6-3.8,11.9c-1.2,4.5-2.1,8.8-2.8,12.8c1,0.3,2,0.6,3,0.8
		c0.1-3.4,0.7-7.9,2.2-12.9c1.4-4.7,3.3-8.6,5.1-11.6C-260.6,808-261.8,807.6-263,807.3z"/>
	<path class="st32" d="M-53,806.7c-9.7,2.8-19.5,5.5-29.2,8.3c3.4,7.9,6.8,15.7,10.2,23.6c8.4-2.5,16.7-5.1,25.1-7.6
		C-49,822.9-51,814.8-53,806.7z"/>
	<path class="st34" d="M-264.2,807c2.5,0.7,5,1.4,7.6,2.1c-1.7,2.6-3.6,6.2-5,10.5c-1.8,5.5-2.3,10.4-2.3,13.9
		c-2.3-0.6-4.6-1.3-6.9-1.9C-268.7,823.4-266.5,815.2-264.2,807z"/>
	<path class="st33" d="M-79.6,814.3c1.9,3.9,3.7,7.8,5.6,11.8c1.8,3.9,3.5,7.7,5.2,11.6c1-0.3,2-0.6,3-0.9c-1.9-3.1-3.9-6.8-5.6-11
		c-1.9-4.6-3.2-8.9-4-12.6C-76.8,813.5-78.2,813.9-79.6,814.3z"/>
	<path class="st34" d="M-80.8,814.6c2.5-0.7,5.1-1.4,7.6-2.1c0.7,3.2,1.7,6.9,3.2,10.8c2,5.1,4.5,9.4,6.7,12.7
		c-2.3,0.7-4.6,1.4-6.9,2.1C-73.7,830.2-77.2,822.4-80.8,814.6z"/>
	<path class="st35" d="M-161.8,652.4"/>
	<path class="st36" d="M-161,650.5c1.3,1.8,3,3.9,5.2,6c3.4,3.2,6.8,5.4,9.6,6.9c3.3-4,6.8-8.6,10.2-14c2.6-4.2,4.8-8.2,6.6-12
		c0.7-1.4,0.5-2.3,0.3-2.7c-0.2-0.6-0.6-0.9-2.4-2.3c-1-0.7-1.8-1.3-2.5-1.8c-5.5,7.6-11.1,15.1-16.6,22.7c-2.9-1.4-5.7-2.8-8.6-4.2
		C-159.8,649.5-160.4,650-161,650.5z"/>
	<path class="st36" d="M-172.3,658.9c0.9,1.3,1.8,2.7,2.7,4c1.9-1.1,4.1-2.5,6.4-4.4c2-1.6,3.6-3.2,4.9-4.7c-0.8-0.9-1.7-2-2.6-3.2
		c-0.8-1.1-1.4-2.2-1.9-3.1C-165.9,651.3-169.1,655.1-172.3,658.9z"/>
	<g>
		<ellipse class="st37" cx="-158.8" cy="669.6" rx="1.7" ry="1.5"/>
		<ellipse class="st38" cx="-158.8" cy="669.6" rx="1.4" ry="1.3"/>
		<ellipse cx="-159.3" cy="669.1" rx="0.3" ry="0.3"/>
		<ellipse cx="-158.3" cy="669.1" rx="0.3" ry="0.3"/>
		<ellipse cx="-159.3" cy="670" rx="0.3" ry="0.3"/>
		<ellipse cx="-158.3" cy="670" rx="0.3" ry="0.3"/>
		<path class="st39" d="M-159.9,668.7c-0.1,0.1-0.2,0.2-0.2,0.4c-0.1,0.1-0.1,0.3-0.1,0.4c0.1,0.2,0.3,0.6,0.7,0.9
			c0.6,0.4,1.2,0.4,1.4,0.4c0.1,0,0.2-0.1,0.2-0.2c0.2-0.1,0.3-0.3,0.4-0.4c-0.3,0-0.9-0.1-1.5-0.5
			C-159.6,669.4-159.8,669-159.9,668.7z"/>
		<path class="st40" d="M-159.9,668.6c0.1-0.1,0.4-0.3,0.8-0.4c0.1,0,0.5-0.1,0.9,0.1c0.3,0.1,0.5,0.3,0.6,0.4"/>
		<path class="st41" d="M-157.3,670c0,0.1-0.2,0.4-0.5,0.7c-0.1,0.1-0.5,0.3-1,0.3c-0.4,0-0.7-0.2-0.8-0.3"/>
		<path class="st42" d="M-158.6,668.3c-0.1,0-0.7-0.1-1.1,0.3c-0.3,0.2-0.4,0.5-0.4,0.6c-0.1,0.1-0.1,0.3-0.1,0.4
			c0.1,0.2,0.3,0.6,0.7,0.9c0.6,0.4,1.2,0.4,1.4,0.4c0.1-0.1,0.3-0.2,0.5-0.4c0.2-0.3,0.3-0.5,0.3-0.6c0.1-0.4-0.1-0.7-0.1-0.8
			c-0.1,0-0.4,0-0.7-0.2C-158.5,668.6-158.6,668.3-158.6,668.3z"/>
	</g>
	<g>
		<ellipse class="st37" cx="-158.8" cy="696.4" rx="1.7" ry="1.5"/>
		<ellipse class="st38" cx="-158.8" cy="696.4" rx="1.4" ry="1.3"/>
		<ellipse cx="-159.3" cy="696" rx="0.3" ry="0.3"/>
		<ellipse cx="-158.3" cy="696" rx="0.3" ry="0.3"/>
		<ellipse cx="-159.3" cy="696.9" rx="0.3" ry="0.3"/>
		<ellipse cx="-158.3" cy="696.9" rx="0.3" ry="0.3"/>
		<path class="st39" d="M-159.9,695.6c-0.1,0.1-0.2,0.2-0.2,0.4c-0.1,0.1-0.1,0.3-0.1,0.4c0.1,0.2,0.3,0.6,0.7,0.9
			c0.6,0.4,1.2,0.4,1.4,0.4c0.1,0,0.2-0.1,0.2-0.2c0.2-0.1,0.3-0.3,0.4-0.4c-0.3,0-0.9-0.1-1.5-0.5S-159.8,695.8-159.9,695.6z"/>
		<path class="st40" d="M-159.9,695.4c0.1-0.1,0.4-0.3,0.8-0.4c0.1,0,0.5-0.1,0.9,0.1c0.3,0.1,0.5,0.3,0.6,0.4"/>
		<path class="st41" d="M-157.3,696.9c0,0.1-0.2,0.4-0.5,0.7c-0.1,0.1-0.5,0.3-1,0.3c-0.4,0-0.7-0.2-0.8-0.3"/>
		<path class="st42" d="M-158.6,695.1c-0.1,0-0.7-0.1-1.1,0.3c-0.3,0.2-0.4,0.5-0.4,0.6c-0.1,0.1-0.1,0.3-0.1,0.4
			c0.1,0.2,0.3,0.6,0.7,0.9c0.6,0.4,1.2,0.4,1.4,0.4c0.1-0.1,0.3-0.2,0.5-0.4c0.2-0.3,0.3-0.5,0.3-0.6c0.1-0.4-0.1-0.7-0.1-0.8
			c-0.1,0-0.4,0-0.7-0.2C-158.5,695.4-158.6,695.2-158.6,695.1z"/>
	</g>
	<g>
		<ellipse class="st37" cx="-158.8" cy="723.3" rx="1.7" ry="1.5"/>
		<ellipse class="st38" cx="-158.8" cy="723.3" rx="1.4" ry="1.3"/>
		<ellipse cx="-159.3" cy="722.9" rx="0.3" ry="0.3"/>
		<ellipse cx="-158.3" cy="722.9" rx="0.3" ry="0.3"/>
		<ellipse cx="-159.3" cy="723.8" rx="0.3" ry="0.3"/>
		<ellipse cx="-158.3" cy="723.8" rx="0.3" ry="0.3"/>
		<path class="st39" d="M-159.9,722.5c-0.1,0.1-0.2,0.2-0.2,0.4c-0.1,0.1-0.1,0.3-0.1,0.4c0.1,0.2,0.3,0.6,0.7,0.9
			c0.6,0.4,1.2,0.4,1.4,0.4c0.1,0,0.2-0.1,0.2-0.2c0.2-0.1,0.3-0.3,0.4-0.4c-0.3,0-0.9-0.1-1.5-0.5
			C-159.6,723.1-159.8,722.7-159.9,722.5z"/>
		<path class="st40" d="M-159.9,722.3c0.1-0.1,0.4-0.3,0.8-0.4c0.1,0,0.5-0.1,0.9,0.1c0.3,0.1,0.5,0.3,0.6,0.4"/>
		<path class="st41" d="M-157.3,723.7c0,0.1-0.2,0.4-0.5,0.7c-0.1,0.1-0.5,0.3-1,0.3c-0.4,0-0.7-0.2-0.8-0.3"/>
		<path class="st42" d="M-158.6,722c-0.1,0-0.7-0.1-1.1,0.3c-0.3,0.2-0.4,0.5-0.4,0.6c-0.1,0.1-0.1,0.3-0.1,0.4
			c0.1,0.2,0.3,0.6,0.7,0.9c0.6,0.4,1.2,0.4,1.4,0.4c0.1-0.1,0.3-0.2,0.5-0.4c0.2-0.3,0.3-0.5,0.3-0.6c0.1-0.4-0.1-0.7-0.1-0.8
			c-0.1,0-0.4,0-0.7-0.2C-158.5,722.3-158.6,722.1-158.6,722z"/>
	</g>
	<g>
		<ellipse class="st37" cx="-158.8" cy="749.4" rx="1.7" ry="1.5"/>
		<ellipse class="st38" cx="-158.8" cy="749.4" rx="1.4" ry="1.3"/>
		<ellipse cx="-159.3" cy="748.9" rx="0.3" ry="0.3"/>
		<ellipse cx="-158.3" cy="748.9" rx="0.3" ry="0.3"/>
		<ellipse cx="-159.3" cy="749.8" rx="0.3" ry="0.3"/>
		<ellipse cx="-158.3" cy="749.8" rx="0.3" ry="0.3"/>
		<path class="st39" d="M-159.9,748.6c-0.1,0.1-0.2,0.2-0.2,0.4c-0.1,0.1-0.1,0.3-0.1,0.4c0.1,0.2,0.3,0.6,0.7,0.9
			c0.6,0.4,1.2,0.4,1.4,0.4c0.1,0,0.2-0.1,0.2-0.2c0.2-0.1,0.3-0.3,0.4-0.4c-0.3,0-0.9-0.1-1.5-0.5S-159.8,748.8-159.9,748.6z"/>
		<path class="st40" d="M-159.9,748.4c0.1-0.1,0.4-0.3,0.8-0.4c0.1,0,0.5-0.1,0.9,0.1c0.3,0.1,0.5,0.3,0.6,0.4"/>
		<path class="st41" d="M-157.3,749.8c0,0.1-0.2,0.4-0.5,0.7c-0.1,0.1-0.5,0.3-1,0.3c-0.4,0-0.7-0.2-0.8-0.3"/>
		<path class="st42" d="M-158.6,748.1c-0.1,0-0.7-0.1-1.1,0.3c-0.3,0.2-0.4,0.5-0.4,0.6c-0.1,0.1-0.1,0.3-0.1,0.4
			c0.1,0.2,0.3,0.6,0.7,0.9c0.6,0.4,1.2,0.4,1.4,0.4c0.1-0.1,0.3-0.2,0.5-0.4c0.2-0.3,0.3-0.5,0.3-0.6c0.1-0.4-0.1-0.7-0.1-0.8
			c-0.1,0-0.4,0-0.7-0.2C-158.5,748.4-158.6,748.2-158.6,748.1z"/>
	</g>
	<g>
		<ellipse class="st37" cx="-158.8" cy="777.1" rx="1.7" ry="1.5"/>
		<ellipse class="st38" cx="-158.8" cy="777.1" rx="1.4" ry="1.3"/>
		<ellipse cx="-159.3" cy="776.6" rx="0.3" ry="0.3"/>
		<ellipse cx="-158.3" cy="776.6" rx="0.3" ry="0.3"/>
		<ellipse cx="-159.3" cy="777.5" rx="0.3" ry="0.3"/>
		<ellipse cx="-158.3" cy="777.5" rx="0.3" ry="0.3"/>
		<path class="st39" d="M-159.9,776.3c-0.1,0.1-0.2,0.2-0.2,0.4c-0.1,0.1-0.1,0.3-0.1,0.4c0.1,0.2,0.3,0.6,0.7,0.9
			c0.6,0.4,1.2,0.4,1.4,0.4c0.1,0,0.2-0.1,0.2-0.2c0.2-0.1,0.3-0.3,0.4-0.4c-0.3,0-0.9-0.1-1.5-0.5S-159.8,776.5-159.9,776.3z"/>
		<path class="st40" d="M-159.9,776.1c0.1-0.1,0.4-0.3,0.8-0.4c0.1,0,0.5-0.1,0.9,0.1c0.3,0.1,0.5,0.3,0.6,0.4"/>
		<path class="st41" d="M-157.3,777.5c0,0.1-0.2,0.4-0.5,0.7c-0.1,0.1-0.5,0.3-1,0.3c-0.4,0-0.7-0.2-0.8-0.3"/>
		<path class="st42" d="M-158.6,775.8c-0.1,0-0.7-0.1-1.1,0.3c-0.3,0.2-0.4,0.5-0.4,0.6c-0.1,0.1-0.1,0.3-0.1,0.4
			c0.1,0.2,0.3,0.6,0.7,0.9c0.6,0.4,1.2,0.4,1.4,0.4c0.1-0.1,0.3-0.2,0.5-0.4c0.2-0.3,0.3-0.5,0.3-0.6c0.1-0.4-0.1-0.7-0.1-0.8
			c-0.1,0-0.4,0-0.7-0.2C-158.5,776.1-158.6,775.9-158.6,775.8z"/>
	</g>
	<g>
		<ellipse class="st37" cx="-158.8" cy="804" rx="1.7" ry="1.5"/>
		<ellipse class="st38" cx="-158.8" cy="804" rx="1.4" ry="1.3"/>
		<ellipse cx="-159.3" cy="803.5" rx="0.3" ry="0.3"/>
		<ellipse cx="-158.3" cy="803.5" rx="0.3" ry="0.3"/>
		<ellipse cx="-159.3" cy="804.4" rx="0.3" ry="0.3"/>
		<ellipse cx="-158.3" cy="804.4" rx="0.3" ry="0.3"/>
		<path class="st39" d="M-159.9,803.1c-0.1,0.1-0.2,0.2-0.2,0.4c-0.1,0.1-0.1,0.3-0.1,0.4c0.1,0.2,0.3,0.6,0.7,0.9
			c0.6,0.4,1.2,0.4,1.4,0.4c0.1,0,0.2-0.1,0.2-0.2c0.2-0.1,0.3-0.3,0.4-0.4c-0.3,0-0.9-0.1-1.5-0.5
			C-159.6,803.8-159.8,803.4-159.9,803.1z"/>
		<path class="st40" d="M-159.9,803c0.1-0.1,0.4-0.3,0.8-0.4c0.1,0,0.5-0.1,0.9,0.1c0.3,0.1,0.5,0.3,0.6,0.4"/>
		<path class="st41" d="M-157.3,804.4c0,0.1-0.2,0.4-0.5,0.7c-0.1,0.1-0.5,0.3-1,0.3c-0.4,0-0.7-0.2-0.8-0.3"/>
		<path class="st42" d="M-158.6,802.7c-0.1,0-0.7-0.1-1.1,0.3c-0.3,0.2-0.4,0.5-0.4,0.6c-0.1,0.1-0.1,0.3-0.1,0.4
			c0.1,0.2,0.3,0.6,0.7,0.9c0.6,0.4,1.2,0.4,1.4,0.4c0.1-0.1,0.3-0.2,0.5-0.4c0.2-0.3,0.3-0.5,0.3-0.6c0.1-0.4-0.1-0.7-0.1-0.8
			c-0.1,0-0.4,0-0.7-0.2C-158.5,803-158.6,802.7-158.6,802.7z"/>
	</g>
	<path class="st43" d="M-180.8,626.1c1.8,2.8,4,5.7,6.6,8.7c5.2,6,10.5,10.7,15.3,14.3c-1.6,2-3.6,4.4-6.3,6.7
		c-2.1,1.8-4.2,3.3-6,4.5c-3.2-4.4-6.4-9.1-9.6-14.1c-2.2-3.5-4.2-6.9-6.1-10.2c-0.2-0.5-0.4-1.3-0.2-2.2c0.2-0.9,0.7-1.5,1-1.8
		C-183.7,629.2-181.3,626.6-180.8,626.1z"/>
	<path class="st43" d="M-137,626.1c-1.7,2.8-3.7,5.7-6.3,8.8c-5.2,6.3-10.8,11-15.5,14.3c1.6,2,3.6,4.4,6.3,6.7
		c2.1,1.8,4.2,3.3,6,4.5c3.1-4,6.4-8.7,9.5-13.9c2.3-3.9,4.3-7.7,6-11.2c0.2-0.2,0.4-0.6,0.4-1.1c0-0.7-0.4-1.2-0.6-1.4
		C-131.9,631.7-134,629.2-137,626.1z"/>
	<path class="st44" d="M-181.3,626.5c1.9,3.5,4.4,7.5,7.8,11.8c4.5,5.5,9.1,9.6,13,12.5c0.1-0.2,0.3-0.3,0.4-0.5
		c0.2-0.2,0.3-0.4,0.4-0.5c-3.9-2.6-8.8-6.5-13.6-11.9c-3.6-4.2-6.2-8.2-8-11.6C-181.1,626.4-181.2,626.5-181.3,626.5z"/>
	<path class="st44" d="M-136.4,626.7c-1.9,3.5-4.4,7.5-7.8,11.6c-4.5,5.5-9.2,9.6-13.1,12.7c-0.1-0.2-0.3-0.3-0.4-0.5
		c-0.2-0.2-0.3-0.4-0.4-0.5c4-2.7,8.9-6.6,13.6-12.1c3.5-4.1,6.1-8.1,7.9-11.4C-136.6,626.5-136.5,626.6-136.4,626.7z"/>
</g>
<g id="suit">
	<path class="st45" d="M56,826v20c10.1,2,20.2,4,30.2,6.1c0.2-12.2,0.1-18.3-0.1-18.3c-0.2,0-0.7,5.7-1.3,17.1
		c10.7-1.8,21.4-3.7,32.2-5.5c0-8.8,0-17.6,0-26.4H56L56,826L56,826z"/>
	<path class="st46" d="M112.9,634.6c-20.9,0.1-41.8,0.2-62.7,0.3c1.4-3.1,2.7-6.3,4.1-9.4c18.3,0,36.5-0.1,54.8-0.1
		C110.4,628.4,111.6,631.5,112.9,634.6z"/>
	<path class="st45" d="M52.2,634.7c18.8-0.1,37.7-0.2,56.5-0.3c-8.8,60.2-17.5,120.5-26.3,180.7C72.3,755,62.3,694.8,52.2,634.7z"/>
	<rect x="72" y="640" class="st17" width="20" height="6"/>
	<rect x="77.6" y="643.3" class="st18" width="9.4" height="2.9"/>
	<text transform="matrix(1.2569 0 0 1 77.583 644.9131)" class="st19 st20 st47">Demere</text>
	<polygon class="st22" points="72,644 92,644 92,640 72,640 	"/>
	<polygon class="st22" points="72,645 92,645 92,641 72,641 	"/>
	<rect x="53.9" y="626.9" class="st23" width="55" height="3.2"/>
	<rect x="54.2" y="625.6" class="st23" width="55.1" height="3.2"/>
	<path class="st48" d="M10.1,654.6c-7.6,29.8-14.5,63-19.5,99.6c-4.2,30.3-6.5,58.8-7.5,84.8c10.3,0,20.6,0,30.8,0
		c0.9-17,2.3-35.2,4.1-53.7c2.8-28.5,6.6-55.5,10.9-81c-1-5.3-2.1-10.6-3.1-16c-3.1-8.1-5.9-14.1-7.7-17.9c-1.5-3.2-2.8-5.6-3.5-6.8
		c-0.2-0.3-0.2-0.4-0.3-0.6C13.3,661.1,11.9,658.4,10.1,654.6z"/>
	<path class="st25" d="M14.4,703.8"/>
	<path class="st26" d="M29.4,711"/>
	<path class="st48" d="M52.3,630.8c1.7,12.1,6.3,43.8,13.6,76.4c0,0,5.3,24,12.1,47.1c3,10.2,3.7,11.7,4.4,14.1c0,0,0.4,1.3,0.7,2.7
		c6.6,28.1,0.1,53,0.1,53c-0.8,4.4-2.3,10.8-5.5,17.9c-2.9,6.4-4.3,9.6-6.7,11.7c-7.1,6.2-18.5,4.4-39.7,0.6c-6-1.1-10.9-2.2-14-2.9
		c1.9-18.5,3.9-31.7,5.5-40.5c0.6-3.3,1.8-10.1,2.9-19.6c0.3-2.1,1.2-10.1,1.8-18.7c0,0,2.7-46.5-7.3-78.4c0,0-0.1-0.2-0.1-0.5
		c-0.1-0.5-0.4-1.2-0.7-2.1c-0.9-3.1-2.5-8.4-4.3-15c-2.5-9.5-4.2-17.2-5.1-21.8c5.7-3.8,11.9-7.7,18.5-11.5
		C36.8,638.5,44.8,634.4,52.3,630.8z"/>
	<g>
		<ellipse class="st37" cx="82.1" cy="791.9" rx="3" ry="2.6"/>
		<ellipse class="st38" cx="82.1" cy="791.9" rx="2.5" ry="2.2"/>
		<ellipse cx="81.3" cy="791.1" rx="0.6" ry="0.5"/>
		<ellipse cx="83" cy="791.1" rx="0.6" ry="0.5"/>
		<ellipse cx="81.3" cy="792.6" rx="0.6" ry="0.5"/>
		<ellipse cx="83" cy="792.6" rx="0.6" ry="0.5"/>
		<path class="st39" d="M80.1,790.5c-0.1,0.1-0.3,0.3-0.4,0.6c-0.1,0.2-0.1,0.5-0.2,0.6c0.1,0.3,0.5,0.9,1.3,1.5
			c1,0.7,2.1,0.7,2.4,0.7c0.1-0.1,0.3-0.1,0.4-0.3c0.3-0.2,0.5-0.5,0.6-0.7c-0.5,0-1.6-0.1-2.7-0.8
			C80.8,791.5,80.3,790.8,80.1,790.5z"/>
		<path class="st40" d="M80.1,790.2c0.2-0.2,0.7-0.6,1.5-0.7c0.2,0,0.8-0.1,1.6,0.2c0.5,0.2,0.9,0.5,1,0.6"/>
		<path class="st41" d="M84.8,792.6c-0.1,0.2-0.3,0.7-0.9,1.2c-0.2,0.1-0.8,0.6-1.8,0.5c-0.8,0-1.3-0.3-1.5-0.4"/>
		<path class="st42" d="M82.5,789.6c-0.2,0-1.2-0.1-2,0.5c-0.5,0.4-0.7,0.8-0.8,0.9c-0.1,0.2-0.1,0.5-0.2,0.6
			c0.1,0.3,0.5,0.9,1.3,1.5c1,0.7,2.1,0.7,2.4,0.7c0.2-0.1,0.5-0.3,0.8-0.6c0.4-0.5,0.5-0.9,0.5-1.1c0.1-0.7-0.1-1.2-0.3-1.4
			c-0.2,0-0.7,0-1.2-0.4C82.7,790.2,82.6,789.8,82.5,789.6z"/>
	</g>
	<path class="st48" d="M111.3,630.4c-15.5,69.4-26.7,120.2-27.2,123.9c-0.2,1.6-0.4,3.1-0.4,3.1c-0.2,1.8-0.5,4.1-0.8,6.9
		c-0.8,9.3-0.7,16.5-0.6,20.6c0.7,22.5,1.1,36.9,6.6,54.5c4,12.7,7.4,15.4,9.5,16.8c3.8,2.4,8.3,3.1,27.2,0.5
		c6.4-0.9,15.3-2.2,25.8-4.3c-3.1-15.5-5.3-28.6-6.8-38.6c-1-6.7-0.5-4.1-3.6-28.6c-0.3-2.4-0.6-5.8-1.3-12.6
		c-0.7-7.1-0.9-11.1-1.1-13c0,0-1.6-17.5,3.4-55l0,0h-0.2c0.3-3.2,0.2-4.4,0.5-6.4c0.9-9,2.2-16.6,3.9-24c2.1-9.1,4.5-16.6,6.4-21.9
		c-5.5-3-11.1-6-16.8-9C127.5,638.9,119.4,634.6,111.3,630.4z"/>
	<g>
		<ellipse class="st37" cx="85.5" cy="765.5" rx="3" ry="2.6"/>
		<ellipse class="st38" cx="85.5" cy="765.5" rx="2.6" ry="2.2"/>
		<ellipse cx="84.6" cy="764.8" rx="0.6" ry="0.5"/>
		<ellipse cx="86.4" cy="764.8" rx="0.6" ry="0.5"/>
		<ellipse cx="84.6" cy="766.3" rx="0.6" ry="0.5"/>
		<ellipse cx="86.4" cy="766.3" rx="0.6" ry="0.5"/>
		<path class="st39" d="M83.5,764.1c-0.1,0.1-0.3,0.3-0.4,0.6c-0.1,0.2-0.1,0.5-0.2,0.6c0.1,0.3,0.5,0.9,1.3,1.5
			c1,0.7,2.2,0.7,2.5,0.7c0.1-0.1,0.3-0.1,0.4-0.3c0.3-0.2,0.5-0.5,0.7-0.7c-0.5,0-1.6-0.1-2.7-0.8
			C84.1,765.2,83.7,764.5,83.5,764.1z"/>
		<path class="st40" d="M83.5,763.8c0.2-0.2,0.7-0.6,1.5-0.7c0.2,0,0.8-0.1,1.6,0.2c0.5,0.2,0.9,0.5,1.1,0.6"/>
		<path class="st41" d="M88.2,766.2c-0.1,0.2-0.3,0.7-0.9,1.2c-0.2,0.1-0.9,0.5-1.8,0.5c-0.8,0-1.3-0.3-1.5-0.4"/>
		<path class="st42" d="M85.9,763.3c-0.2,0-1.2-0.1-2.1,0.5c-0.5,0.4-0.7,0.8-0.8,0.9c-0.1,0.2-0.1,0.5-0.2,0.6
			c0.1,0.3,0.5,0.9,1.3,1.5c1,0.7,2.2,0.7,2.5,0.7c0.2-0.1,0.5-0.3,0.8-0.6c0.4-0.5,0.5-0.9,0.5-1.1c0.1-0.7-0.1-1.2-0.3-1.4
			c-0.2,0-0.7,0-1.3-0.4C86.1,763.8,85.9,763.5,85.9,763.3z"/>
	</g>
	<path class="st27" d="M113.9,630.1"/>
	<path class="st27" d="M113.9,630.1"/>
	<path class="st27" d="M113.9,630.9"/>
	<path class="st48" d="M152.4,652.3c10.2,39.4,19.1,82.3,25.7,128.6c2.7,18.9,4.8,37.4,6.5,55.3c-9.7,0.2-19.4,0.3-29.1,0.5
		c-1.6-17.7-3.6-35.9-6.1-54.7c-3.9-28.7-8.7-56-14-81.6c-0.2-5-0.3-10.1-0.5-15.1c-0.5-2.4-0.9-6.4,0.7-10.8
		c0.9-2.5,2.1-4.7,6.4-10C144.5,661.1,148,657,152.4,652.3z"/>
	<path class="st49" d="M52.2,635c-8.9,3.8-18.2,8.3-28,13.7c-5.2,2.9-10.1,5.8-14.7,8.7"/>
	<path class="st49" d="M107.8,632.9c9,3.7,18.3,8,27.9,12.8c5.9,3,11.6,5.9,17,8.9"/>
	<path class="st30" d="M86.4,662.4"/>
	<path class="st31" d="M152.7,862.9"/>
	<path class="st35" d="M78.1,654.4"/>
	<path class="st38" d="M109.3,625.6c-1.4,5.4-2.9,10.9-4.2,16.5C93.9,687.2,86.2,730.9,81.3,773c6-15.1,11.9-31.4,17.3-48.9
		c7.8-25.3,13.6-49.1,17.7-71.1c-1.7,0.4-3.3,0.8-5,1.2c2-3.2,3.9-6.4,5.9-9.7c-0.8-2.8-1.8-5.8-3.1-9.1
		C112.5,631.7,110.9,628.4,109.3,625.6z"/>
	<path class="st38" d="M54.4,625.6c1.4,5.4,2.9,10.9,4.2,16.5c10.8,43.5,18.5,85.7,23.8,126.5c-5.7-13.8-11.3-28.7-16.5-44.7
		c-8.2-25.3-14.2-49.1-18.4-70.9c1.7,0.4,3.3,0.8,5,1.2c-2-3.2-3.9-6.4-5.9-9.7c0.8-2.8,1.8-5.8,3.1-9.1
		C51.2,631.7,52.8,628.4,54.4,625.6z"/>
	<path class="st50" d="M-71.5,779.8"/>
	<path class="st38" d="M85.6,773"/>
	<path class="st51" d="M143.4,874.9"/>
	<path class="st38" d="M26,789.8c7.6-0.1,15.3-0.2,22.9-0.3c-0.8,2.8-1.6,5.7-2.3,8.5c-7.3,0-14.5,0-21.8,0
		C25.1,795.3,25.6,792.5,26,789.8z"/>
	<path class="st38" d="M141.8,791.8c-7.7-0.1-15.4-0.2-23.1-0.3c0.8,2.8,1.6,5.7,2.3,8.5c7.3,0,14.5,0,21.8,0
		C142.5,797.3,142.2,794.6,141.8,791.8z"/>
</g>
<g id="briefcase">
	<path class="st52" d="M152.8,368.7H10.5c-4.4,0-8-3.6-8-8V259.3c0-4.4,3.6-8,8-8h142.3c4.4,0,8,3.6,8,8v101.4
		C160.8,365.1,157.2,368.7,152.8,368.7z"/>
	<path class="st53" d="M93.7,238.5H69.6c-6.6,0-11.9,5.4-11.9,11.9v3.1c0,6.6,5.4,11.9,11.9,11.9h24.1c6.6,0,11.9-5.4,11.9-11.9
		v-3.1C105.6,243.9,100.3,238.5,93.7,238.5z"/>
	<path class="st54" d="M81.6,292.7c-13.2-2.2-65.8-11.3-78.9-13.6c-0.1-6.2-0.1-12.5-0.2-18.7c0-5,3.6-9.1,8.1-9.1h142.2
		c4.4,0,8.1,4.1,8.1,9.1c0,6.3,0,12.6,0,18.9C134.4,283.7,108,288.2,81.6,292.7z"/>
	<rect x="70.9" y="286.5" class="st55" width="21.8" height="10.3"/>
</g>
</svg>
