<?xml version="1.0" encoding="utf-8"?>
<!-- Generator: Adobe Illustrator 19.1.0, SVG Export Plug-In . SVG Version: 6.00 Build 0)  -->
<svg version="1.1" xmlns="http://www.w3.org/2000/svg" xmlns:xlink="http://www.w3.org/1999/xlink" x="0px" y="0px"
	 viewBox="0 0 800 937.9" enable-background="new 0 0 800 937.9" xml:space="preserve">
<g id="BG">
	<rect y="-0.6" fill="#FFFFFF" width="800" height="938.5"/>
	<polyline fill="#FFFFFF" points="641.7,549.8 642.6,554.3 595.7,561.3 	"/>
</g>
<g id="Pipes">
	<polyline fill="none" stroke="#939393" stroke-width="6" stroke-miterlimit="10" points="125,800 125,160 682,160 682,800 	"/>
	<rect x="108" y="149" fill="#7F7F7F" width="594" height="19"/>
</g>
<g id="Pipes_shading">
	<rect x="108" y="152.5" opacity="0.17" fill="#7F7F7F" width="594" height="9.5"/>
	<rect x="108" y="150.8" opacity="0.18" fill="#7F7F7F" width="594" height="9.5"/>
	<rect x="108" y="149.2" opacity="0.18" fill="#7F7F7F" width="594" height="9.5"/>
	<line opacity="0.93" fill="none" stroke="#F7F7F7" stroke-miterlimit="10" x1="702" y1="152.5" x2="108" y2="152.5"/>
	<rect x="108" y="154.4" opacity="0.18" fill="#7F7F7F" width="594" height="9.5"/>
</g>
<g id="Shirt_Body_Behind">
</g>
<g id="Shirt_Body_Behind_Shade">
</g>
<g id="Shirt_Body_Front">
</g>
<g id="Sleeve_Cuffs">
</g>
<g id="Shirt_Body_Shadow">
</g>
<g id="buttons">
</g>
<g id="Collar">
	<path fill="#333333" d="M427.5,209c-21.1,0-42.3,0-63.4,0c2.4-3.5,4.7-7,7.1-10.5c16.3,0,32.7-0.1,49-0.1
		C422.6,201.9,425,205.5,427.5,209z"/>
	<rect x="370.8" y="200.1" opacity="0.19" fill="#7F7F7F" width="49.2" height="3.5"/>
	<rect x="371.1" y="198.6" opacity="0.19" fill="#7F7F7F" width="49.2" height="3.5"/>
</g>
<g id="Collar_Shadow">
	<g id="Hanger_x2F_Collar">
		<path fill="none" stroke="#565656" stroke-miterlimit="10" d="M440.4,241.8"/>
		<g id="Layer_4">
			<path fill="#FFFFFF" stroke="#000000" stroke-width="0.5" stroke-miterlimit="10" d="M421.1,179.8"/>
		</g>
		<path fill="none" stroke="#7A7A7A" stroke-width="6" stroke-miterlimit="10" d="M389.7,148.8c1.3-0.5,3.4-1.1,6.1-1.2
			c2.2-0.1,5.8-0.3,9.3,1.9c0.9,0.6,3.9,2.5,5.1,6.2c1.4,4.3-0.5,7.9-0.9,8.8c-1.5,2.9-3.8,4.3-4.8,5c0,0-2.4,1.5-5.5,2.3
			c-0.6,0.1-1.1,0.3-1.6,0.4c-0.1,0-0.6,0.1-1.2,0.3c-0.1,0-0.2,0.1-0.2,0.1c-0.2,0.1-0.5,0.4-0.6,1.4c0,5.1,0.1,10.3,0.1,15.4
			c-22.8,16.8-45.7,33.7-68.5,50.5"/>
		<path fill="none" stroke="#7A7A7A" stroke-width="6" stroke-miterlimit="10" d="M468.3,240.6c-24.4-17.1-48.9-34.3-73.3-51.4"/>
	</g>
	<polygon fill="#1E1E1E" points="373,209 418,209 395.7,235.2 	"/>
	<rect x="387" y="216" fill="#F2F2F2" width="18" height="7"/>
	<rect x="392" y="218.6" fill="none" width="8.4" height="3.3"/>
	<text transform="matrix(1 0 0 1 392.0132 220.336)" fill="#AF4545" font-family="'MyriadPro-Regular'" font-size="2.5px">Demere</text>
	<polygon opacity="0.1" fill="#CCCCCC" points="387,220 405,220 405,216 387,216 	"/>
	<polygon opacity="0.1" fill="#CCCCCC" points="387,221 405,221 405,217 387,217 	"/>
	<path fill="#383838" d="M320.2,237.5c-8.1,36.6-16.6,73.7-25.5,111.2c-8.2,34.5-16.5,68.6-25,102.1c9.3,2.8,18.7,5.6,28,8.4
		c11.1-28,22.1-55.9,33.2-83.9c1.3-33.4,2.5-66.8,3.8-100.2c-2.8-9.1-5.3-15.9-6.9-20.2c-1.7-4.3-3-7.4-3.4-8.4
		C322.8,243,321.4,239.9,320.2,237.5z"/>
	<path fill="#FFFFFF" stroke="#000000" stroke-width="0.5" stroke-miterlimit="10" d="M335.5,286.5"/>
	<path fill="#474646" stroke="#000000" stroke-width="0.5" stroke-miterlimit="10" d="M348.9,294.6"/>
	<path fill="#383838" d="M364.3,207.6c-14.7,10-29.4,19.9-44.1,29.9c2.6,5.8,5.1,12.3,7.4,19.4c2.6,7.8,4.3,11.7,4.9,17.4
		c0.4,3.7,0.3,7.4,0.3,7.4c0,1.8-0.2,2.9-0.2,3c-0.1,0.8-0.6,18.2-2.2,79.7c-0.8,28.3-1.6,56.7-2.4,85c5.6,2,13.3,4.3,22.5,6.2
		c4.7,0.9,10.6,2.1,18.1,2.4c14.5,0.7,15.6-2.5,28.8-2.1c12.8,0.4,13.6,3.5,25.6,2.8c5.8-0.3,10.2-1.3,17.9-3c9-2,16.4-4.2,21.5-5.9
		c-0.5-29.2-1-58.4-1.5-87.5c-1-62.7-1.1-85.5-0.7-88.4c0,0,0.7-5,0.7-5c0.6-3.3,1.4-6.3,2.5-9.8c3-9.1,8-20.9,8.6-22.4
		c-15.5-10.5-31.1-20.9-46.6-31.4c-9.9,7.3-19.7,14.6-29.6,21.8"/>
	<path fill="#FFFFFF" stroke="#000000" stroke-miterlimit="10" d="M424.5,203.7"/>
	<path fill="#FFFFFF" stroke="#000000" stroke-miterlimit="10" d="M424.5,203.7"/>
	<path fill="#FFFFFF" stroke="#000000" stroke-miterlimit="10" d="M424.5,204.6"/>
	<path fill="#383838" d="M472.2,236.8c8.1,37,16.2,74,24.2,111c8.4,34.1,16.9,68.3,25.3,102.4c-9.4,3.1-18.8,6.3-28.3,9.4
		c-11.4-28.5-22.8-56.9-34.1-85.4c-1-33.4-2-66.9-3.1-100.3c-0.4-2.7-0.8-7.1,0.6-12.1c1.1-4.2,2.9-7,5.7-11.3
		c1.8-2.8,4.5-6.6,8.3-10.8l0,0l0,0C471.2,239.1,471.6,238.1,472.2,236.8z"/>
	<rect x="393.1" y="226.7" opacity="0.65" fill="#333333" width="5.5" height="228.8"/>
	<path opacity="0.25" fill="none" stroke="#000000" stroke-width="0.5" stroke-miterlimit="10" d="M369.3,209.2
		c-8,4.6-16.4,9.7-25,15.4c-8.2,5.4-15.7,10.8-22.7,16.1"/>
	<path opacity="0.25" fill="none" stroke="#000000" stroke-width="0.5" stroke-miterlimit="10" d="M416.9,205.4
		c8.6,4.6,17.7,9.9,27.1,15.9c9.6,6.1,18.3,12.2,26.3,18.2"/>
	<path fill="#9E9E9E" d="M399.9,240"/>
	<path fill="#3F3F3F" d="M459.2,465.3"/>
	<path opacity="0.15" fill="#6B6B6B" d="M277.3,420.7c10.8,3.3,21.6,6.6,32.4,10l-12,28.7l-28-8.4
		C272.3,440.8,274.8,430.8,277.3,420.7z"/>
	<path opacity="0.13" fill="#E5E5E5" d="M278.7,421.1c-1.5,4.5-3,9.3-4.2,14.6c-1.4,5.6-2.4,10.8-3.1,15.7c1.1,0.3,2.3,0.7,3.4,1
		c0.2-4.2,0.7-9.7,2.4-15.8c1.6-5.8,3.8-10.6,5.7-14.2C281.4,422,280,421.5,278.7,421.1z"/>
	<path opacity="0.15" fill="#6B6B6B" d="M514.9,420.4c-11,3.4-21.9,6.8-32.9,10.2c3.8,9.7,7.7,19.3,11.5,29
		c9.4-3.1,18.8-6.3,28.2-9.4C519.4,440.3,517.1,430.3,514.9,420.4z"/>
	<path opacity="4.000000e-02" fill="#F7F7F7" d="M277.3,420.7c2.8,0.9,5.7,1.7,8.5,2.6c-1.9,3.2-4,7.6-5.7,12.9
		c-2.1,6.8-2.6,12.7-2.6,17.1c-2.6-0.8-5.2-1.6-7.8-2.3C272.2,440.9,274.8,430.8,277.3,420.7z"/>
	<path opacity="0.13" fill="#E5E5E5" d="M485,429.6c2.1,4.8,4.2,9.6,6.2,14.5c2,4.8,4,9.5,5.9,14.2c1.1-0.4,2.3-0.7,3.4-1.1
		c-2.1-3.8-4.4-8.3-6.3-13.5c-2.2-5.7-3.6-11-4.5-15.5C488.1,428.7,486.5,429.2,485,429.6z"/>
	<path opacity="4.000000e-02" fill="#F7F7F7" d="M483.6,430.1c2.8-0.9,5.7-1.8,8.5-2.6c0.7,3.9,1.9,8.4,3.6,13.3
		c2.3,6.3,5,11.5,7.5,15.6c-2.6,0.8-5.2,1.7-7.8,2.5C491.6,449.3,487.6,439.7,483.6,430.1z"/>
	<path fill="#7A7A7A" d="M392.5,231"/>
	<path opacity="0.16" fill="#333333" d="M393.4,228.6c1.4,2.2,3.4,4.8,5.8,7.4c3.8,4,7.7,6.7,10.8,8.5c3.7-4.9,7.7-10.6,11.5-17.2
		c3-5.2,5.4-10.1,7.4-14.7c0.8-1.7,0.6-2.8,0.4-3.3c-0.2-0.7-0.7-1.1-2.7-2.8c-1.1-0.9-2.1-1.7-2.9-2.2
		c-6.2,9.3-12.5,18.6-18.7,27.8c-3.2-1.7-6.4-3.4-9.6-5.2C394.8,227.4,394.1,228,393.4,228.6z"/>
	<path opacity="0.16" fill="#333333" d="M380.7,239c1,1.6,2,3.3,3,4.9c2.2-1.4,4.6-3.1,7.2-5.4c2.2-2,4-4,5.5-5.8
		c-0.9-1.1-1.9-2.4-2.9-4c-0.9-1.4-1.5-2.6-2.1-3.8C387.9,229.6,384.3,234.3,380.7,239z"/>
	<g>
		<ellipse fill="#0E0E0F" cx="395.9" cy="252" rx="1.9" ry="1.9"/>
		<ellipse fill="#282828" cx="395.9" cy="252" rx="1.6" ry="1.6"/>
		<ellipse cx="395.3" cy="251.5" rx="0.4" ry="0.4"/>
		<ellipse cx="396.4" cy="251.5" rx="0.4" ry="0.4"/>
		<ellipse cx="395.3" cy="252.6" rx="0.4" ry="0.4"/>
		<ellipse cx="396.4" cy="252.6" rx="0.4" ry="0.4"/>
		<path opacity="0.19" fill="#9E9E9E" d="M394.6,251c-0.1,0.1-0.2,0.2-0.3,0.4c-0.1,0.2-0.1,0.3-0.1,0.4c0.1,0.2,0.3,0.7,0.8,1.1
			c0.6,0.5,1.3,0.5,1.5,0.5c0.1,0,0.2-0.1,0.3-0.2c0.2-0.2,0.3-0.4,0.4-0.5c-0.3,0-1-0.1-1.7-0.6C395,251.8,394.7,251.3,394.6,251z"
			/>
		<path opacity="0.84" fill="none" stroke="#FFFFFF" stroke-width="5.000000e-02" stroke-miterlimit="10" d="M394.6,250.8
			c0.1-0.1,0.4-0.4,0.9-0.5c0.1,0,0.5-0.1,1,0.1c0.3,0.1,0.5,0.3,0.7,0.5"/>
		<path opacity="0.31" fill="none" stroke="#FFFFFF" stroke-width="5.000000e-02" stroke-miterlimit="10" d="M397.5,252.5
			c-0.1,0.2-0.2,0.5-0.6,0.9c-0.1,0.1-0.5,0.4-1.1,0.4c-0.5,0-0.8-0.2-0.9-0.3"/>
		<path opacity="0.15" fill="#9E9E9E" d="M396.1,250.4c-0.1,0-0.8-0.1-1.3,0.4c-0.3,0.3-0.4,0.6-0.5,0.7c-0.1,0.2-0.1,0.3-0.1,0.4
			c0.1,0.2,0.3,0.7,0.8,1.1c0.6,0.5,1.3,0.5,1.5,0.5c0.1-0.1,0.3-0.2,0.5-0.4c0.3-0.3,0.3-0.7,0.3-0.8c0.1-0.5-0.1-0.9-0.2-1
			c-0.1,0-0.5,0-0.8-0.3C396.2,250.8,396.1,250.5,396.1,250.4z"/>
	</g>
	<g>
		<ellipse fill="#0E0E0F" cx="395.9" cy="285" rx="1.9" ry="1.9"/>
		<ellipse fill="#282828" cx="395.9" cy="285" rx="1.6" ry="1.6"/>
		<ellipse cx="395.3" cy="284.5" rx="0.4" ry="0.4"/>
		<ellipse cx="396.4" cy="284.5" rx="0.4" ry="0.4"/>
		<ellipse cx="395.3" cy="285.6" rx="0.4" ry="0.4"/>
		<ellipse cx="396.4" cy="285.6" rx="0.4" ry="0.4"/>
		<path opacity="0.19" fill="#9E9E9E" d="M394.6,284c-0.1,0.1-0.2,0.2-0.3,0.4c-0.1,0.2-0.1,0.3-0.1,0.4c0.1,0.2,0.3,0.7,0.8,1.1
			c0.6,0.5,1.3,0.5,1.5,0.5c0.1,0,0.2-0.1,0.3-0.2c0.2-0.2,0.3-0.4,0.4-0.5c-0.3,0-1-0.1-1.7-0.6C395,284.8,394.7,284.3,394.6,284z"
			/>
		<path opacity="0.84" fill="none" stroke="#FFFFFF" stroke-width="5.000000e-02" stroke-miterlimit="10" d="M394.6,283.8
			c0.1-0.1,0.4-0.4,0.9-0.5c0.1,0,0.5-0.1,1,0.1c0.3,0.1,0.5,0.3,0.7,0.5"/>
		<path opacity="0.31" fill="none" stroke="#FFFFFF" stroke-width="5.000000e-02" stroke-miterlimit="10" d="M397.5,285.5
			c-0.1,0.2-0.2,0.5-0.6,0.9c-0.1,0.1-0.5,0.4-1.1,0.4c-0.5,0-0.8-0.2-0.9-0.3"/>
		<path opacity="0.15" fill="#9E9E9E" d="M396.1,283.4c-0.1,0-0.8-0.1-1.3,0.4c-0.3,0.3-0.4,0.6-0.5,0.7c-0.1,0.2-0.1,0.3-0.1,0.4
			c0.1,0.2,0.3,0.7,0.8,1.1c0.6,0.5,1.3,0.5,1.5,0.5c0.1-0.1,0.3-0.2,0.5-0.4c0.3-0.3,0.3-0.7,0.3-0.8c0.1-0.5-0.1-0.9-0.2-1
			c-0.1,0-0.5,0-0.8-0.3C396.2,283.8,396.1,283.5,396.1,283.4z"/>
	</g>
	<g>
		<ellipse fill="#0E0E0F" cx="395.9" cy="318" rx="1.9" ry="1.9"/>
		<ellipse fill="#282828" cx="395.9" cy="318" rx="1.6" ry="1.6"/>
		<ellipse cx="395.3" cy="317.5" rx="0.4" ry="0.4"/>
		<ellipse cx="396.4" cy="317.5" rx="0.4" ry="0.4"/>
		<ellipse cx="395.3" cy="318.6" rx="0.4" ry="0.4"/>
		<ellipse cx="396.4" cy="318.6" rx="0.4" ry="0.4"/>
		<path opacity="0.19" fill="#9E9E9E" d="M394.6,317c-0.1,0.1-0.2,0.2-0.3,0.4c-0.1,0.2-0.1,0.3-0.1,0.4c0.1,0.2,0.3,0.7,0.8,1.1
			c0.6,0.5,1.3,0.5,1.5,0.5c0.1,0,0.2-0.1,0.3-0.2c0.2-0.2,0.3-0.4,0.4-0.5c-0.3,0-1-0.1-1.7-0.6C395,317.8,394.7,317.3,394.6,317z"
			/>
		<path opacity="0.84" fill="none" stroke="#FFFFFF" stroke-width="5.000000e-02" stroke-miterlimit="10" d="M394.6,316.8
			c0.1-0.1,0.4-0.4,0.9-0.5c0.1,0,0.5-0.1,1,0.1c0.3,0.1,0.5,0.3,0.7,0.5"/>
		<path opacity="0.31" fill="none" stroke="#FFFFFF" stroke-width="5.000000e-02" stroke-miterlimit="10" d="M397.5,318.5
			c-0.1,0.2-0.2,0.5-0.6,0.9c-0.1,0.1-0.5,0.4-1.1,0.4c-0.5,0-0.8-0.2-0.9-0.3"/>
		<path opacity="0.15" fill="#9E9E9E" d="M396.1,316.4c-0.1,0-0.8-0.1-1.3,0.4c-0.3,0.3-0.4,0.6-0.5,0.7c-0.1,0.2-0.1,0.3-0.1,0.4
			c0.1,0.2,0.3,0.7,0.8,1.1c0.6,0.5,1.3,0.5,1.5,0.5c0.1-0.1,0.3-0.2,0.5-0.4c0.3-0.3,0.3-0.7,0.3-0.8c0.1-0.5-0.1-0.9-0.2-1
			c-0.1,0-0.5,0-0.8-0.3C396.2,316.8,396.1,316.5,396.1,316.4z"/>
	</g>
	<g>
		<ellipse fill="#0E0E0F" cx="395.9" cy="350" rx="1.9" ry="1.9"/>
		<ellipse fill="#282828" cx="395.9" cy="350" rx="1.6" ry="1.6"/>
		<ellipse cx="395.3" cy="349.5" rx="0.4" ry="0.4"/>
		<ellipse cx="396.4" cy="349.5" rx="0.4" ry="0.4"/>
		<ellipse cx="395.3" cy="350.6" rx="0.4" ry="0.4"/>
		<ellipse cx="396.4" cy="350.6" rx="0.4" ry="0.4"/>
		<path opacity="0.19" fill="#9E9E9E" d="M394.6,349c-0.1,0.1-0.2,0.2-0.3,0.4c-0.1,0.2-0.1,0.3-0.1,0.4c0.1,0.2,0.3,0.7,0.8,1.1
			c0.6,0.5,1.3,0.5,1.5,0.5c0.1,0,0.2-0.1,0.3-0.2c0.2-0.2,0.3-0.4,0.4-0.5c-0.3,0-1-0.1-1.7-0.6C395,349.8,394.7,349.3,394.6,349z"
			/>
		<path opacity="0.84" fill="none" stroke="#FFFFFF" stroke-width="5.000000e-02" stroke-miterlimit="10" d="M394.6,348.8
			c0.1-0.1,0.4-0.4,0.9-0.5c0.1,0,0.5-0.1,1,0.1c0.3,0.1,0.5,0.3,0.7,0.5"/>
		<path opacity="0.31" fill="none" stroke="#FFFFFF" stroke-width="5.000000e-02" stroke-miterlimit="10" d="M397.5,350.5
			c-0.1,0.2-0.2,0.5-0.6,0.9c-0.1,0.1-0.5,0.4-1.1,0.4c-0.5,0-0.8-0.2-0.9-0.3"/>
		<path opacity="0.15" fill="#9E9E9E" d="M396.1,348.4c-0.1,0-0.8-0.1-1.3,0.4c-0.3,0.3-0.4,0.6-0.5,0.7c-0.1,0.2-0.1,0.3-0.1,0.4
			c0.1,0.2,0.3,0.7,0.8,1.1c0.6,0.5,1.3,0.5,1.5,0.5c0.1-0.1,0.3-0.2,0.5-0.4c0.3-0.3,0.3-0.7,0.3-0.8c0.1-0.5-0.1-0.9-0.2-1
			c-0.1,0-0.5,0-0.8-0.3C396.2,348.8,396.1,348.5,396.1,348.4z"/>
	</g>
	<g>
		<ellipse fill="#0E0E0F" cx="395.9" cy="384" rx="1.9" ry="1.9"/>
		<ellipse fill="#282828" cx="395.9" cy="384" rx="1.6" ry="1.6"/>
		<ellipse cx="395.3" cy="383.5" rx="0.4" ry="0.4"/>
		<ellipse cx="396.4" cy="383.5" rx="0.4" ry="0.4"/>
		<ellipse cx="395.3" cy="384.6" rx="0.4" ry="0.4"/>
		<ellipse cx="396.4" cy="384.6" rx="0.4" ry="0.4"/>
		<path opacity="0.19" fill="#9E9E9E" d="M394.6,383c-0.1,0.1-0.2,0.2-0.3,0.4c-0.1,0.2-0.1,0.3-0.1,0.4c0.1,0.2,0.3,0.7,0.8,1.1
			c0.6,0.5,1.3,0.5,1.5,0.5c0.1,0,0.2-0.1,0.3-0.2c0.2-0.2,0.3-0.4,0.4-0.5c-0.3,0-1-0.1-1.7-0.6C395,383.8,394.7,383.3,394.6,383z"
			/>
		<path opacity="0.84" fill="none" stroke="#FFFFFF" stroke-width="5.000000e-02" stroke-miterlimit="10" d="M394.6,382.8
			c0.1-0.1,0.4-0.4,0.9-0.5c0.1,0,0.5-0.1,1,0.1c0.3,0.1,0.5,0.3,0.7,0.5"/>
		<path opacity="0.31" fill="none" stroke="#FFFFFF" stroke-width="5.000000e-02" stroke-miterlimit="10" d="M397.5,384.5
			c-0.1,0.2-0.2,0.5-0.6,0.9c-0.1,0.1-0.5,0.4-1.1,0.4c-0.5,0-0.8-0.2-0.9-0.3"/>
		<path opacity="0.15" fill="#9E9E9E" d="M396.1,382.4c-0.1,0-0.8-0.1-1.3,0.4c-0.3,0.3-0.4,0.6-0.5,0.7c-0.1,0.2-0.1,0.3-0.1,0.4
			c0.1,0.2,0.3,0.7,0.8,1.1c0.6,0.5,1.3,0.5,1.5,0.5c0.1-0.1,0.3-0.2,0.5-0.4c0.3-0.3,0.3-0.7,0.3-0.8c0.1-0.5-0.1-0.9-0.2-1
			c-0.1,0-0.5,0-0.8-0.3C396.2,382.8,396.1,382.5,396.1,382.4z"/>
	</g>
	<g>
		<ellipse fill="#0E0E0F" cx="395.9" cy="417" rx="1.9" ry="1.9"/>
		<ellipse fill="#282828" cx="395.9" cy="417" rx="1.6" ry="1.6"/>
		<ellipse cx="395.3" cy="416.5" rx="0.4" ry="0.4"/>
		<ellipse cx="396.4" cy="416.5" rx="0.4" ry="0.4"/>
		<ellipse cx="395.3" cy="417.6" rx="0.4" ry="0.4"/>
		<ellipse cx="396.4" cy="417.6" rx="0.4" ry="0.4"/>
		<path opacity="0.19" fill="#9E9E9E" d="M394.6,416c-0.1,0.1-0.2,0.2-0.3,0.4c-0.1,0.2-0.1,0.3-0.1,0.4c0.1,0.2,0.3,0.7,0.8,1.1
			c0.6,0.5,1.3,0.5,1.5,0.5c0.1,0,0.2-0.1,0.3-0.2c0.2-0.2,0.3-0.4,0.4-0.5c-0.3,0-1-0.1-1.7-0.6C395,416.8,394.7,416.3,394.6,416z"
			/>
		<path opacity="0.84" fill="none" stroke="#FFFFFF" stroke-width="5.000000e-02" stroke-miterlimit="10" d="M394.6,415.8
			c0.1-0.1,0.4-0.4,0.9-0.5c0.1,0,0.5-0.1,1,0.1c0.3,0.1,0.5,0.3,0.7,0.5"/>
		<path opacity="0.31" fill="none" stroke="#FFFFFF" stroke-width="5.000000e-02" stroke-miterlimit="10" d="M397.5,417.5
			c-0.1,0.2-0.2,0.5-0.6,0.9c-0.1,0.1-0.5,0.4-1.1,0.4c-0.5,0-0.8-0.2-0.9-0.3"/>
		<path opacity="0.15" fill="#9E9E9E" d="M396.1,415.4c-0.1,0-0.8-0.1-1.3,0.4c-0.3,0.3-0.4,0.6-0.5,0.7c-0.1,0.2-0.1,0.3-0.1,0.4
			c0.1,0.2,0.3,0.7,0.8,1.1c0.6,0.5,1.3,0.5,1.5,0.5c0.1-0.1,0.3-0.2,0.5-0.4c0.3-0.3,0.3-0.7,0.3-0.8c0.1-0.5-0.1-0.9-0.2-1
			c-0.1,0-0.5,0-0.8-0.3C396.2,415.8,396.1,415.5,396.1,415.4z"/>
	</g>
	<path fill="#282828" d="M371.1,198.6c2.1,3.4,4.5,7,7.4,10.7c5.8,7.4,11.8,13.2,17.2,17.6c-1.8,2.5-4.1,5.3-7.1,8.2
		c-2.4,2.2-4.7,4.1-6.8,5.5c-3.6-5.4-7.2-11.2-10.8-17.3c-2.5-4.3-4.8-8.5-6.9-12.6c-0.2-0.6-0.4-1.6-0.2-2.7
		c0.2-1.1,0.8-1.8,1.1-2.2C367.8,202.4,370.6,199.2,371.1,198.6z"/>
	<path fill="#282828" d="M420.4,198.6c-1.9,3.4-4.2,7-7.1,10.8c-5.9,7.8-12.2,13.5-17.5,17.5c1.8,2.5,4.1,5.3,7.1,8.2
		c2.4,2.2,4.7,4.1,6.8,5.5c3.5-4.9,7.2-10.6,10.7-17.1c2.6-4.8,4.9-9.5,6.8-13.8c0.2-0.3,0.4-0.8,0.4-1.3c0-0.8-0.4-1.4-0.6-1.8
		C426.1,205.5,423.7,202.5,420.4,198.6z"/>
	<path opacity="0.22" fill="#F2F2F2" d="M370.6,199.2c2.1,4.3,4.9,9.3,8.8,14.5c5,6.7,10.2,11.7,14.6,15.4c0.2-0.2,0.3-0.4,0.5-0.6
		c0.2-0.2,0.3-0.4,0.5-0.7c-4.4-3.2-10-7.9-15.3-14.6c-4.1-5.1-6.9-10.1-9-14.2C370.8,199,370.7,199.1,370.6,199.2z"/>
	<path opacity="0.22" fill="#F2F2F2" d="M421,199.4c-2.1,4.3-5,9.2-8.8,14.3c-5.1,6.7-10.3,11.8-14.7,15.5c-0.2-0.2-0.3-0.4-0.5-0.6
		c-0.2-0.2-0.3-0.4-0.5-0.7c4.5-3.3,10-8.1,15.3-14.8c4-5,6.8-9.9,8.9-14C420.9,199.2,420.9,199.3,421,199.4z"/>
</g>
<g id="Flash_1_">
	<path fill="#FFD60D" stroke="#000000" stroke-width="2" stroke-miterlimit="10" d="M559.5,636.8"/>
	<path fill="#D1BB18" d="M521.7,480"/>
	<path fill="#F7C908" d="M473.8,495.4c3.6,11.5,7.3,23,10.9,34.5l20.3-23.1C494.6,503,484.2,499.2,473.8,495.4z"/>
	<path fill="#F7C908" d="M592.4,517.6c-1.8-2.5-3.7-5-5.5-7.4c-16.6,16.2-34.6,35.7-52.6,58.9c-17.2,22.1-31.1,43.4-42.4,62.7
		c16.4-1.1,32.9-2.2,49.3-3.4c10.9-1.9,22.4-4.2,34.5-7.2c14.6-3.6,28.1-7.7,40.5-11.9c1.2-23.8,2.9-48.2,5.1-73.4
		c1.2-13.2,2.5-26.2,3.9-39C614.2,503.7,603.3,510.6,592.4,517.6z"/>
	<g>
		<path fill="#F7C908" d="M565.7,475.7c-10.2,14.1-20.5,28.1-30.7,42.2c-10-3.7-20-7.3-30.1-11L484.6,530c2.3,7.4,4.6,14.7,7,22.1
			c-6.6,4.4-13.2,8.9-19.8,13.3c-7.9,4.8-15.9,9.7-23.8,14.5c14.1,7,28.1,14,42.2,21c-4,6-7.9,12-11.9,18
			c-3.4,4.7-6.8,9.5-10.1,14.2c7.9-0.5,15.8-0.9,23.7-1.4c13.7-19.6,28.6-39.7,44.7-60.2c17.1-21.8,34-42.1,50.6-61
			C580.1,498.9,572.9,487.3,565.7,475.7z"/>
	</g>
</g>
<g id="Phone">
	<g id="Layer_19">
	</g>
	<g id="Flash">
	</g>
	<path fill="#F2F2F2" d="M713.7,926.5H522c-8.8,0-16-7.2-16-16V548.6c0-8.8,7.2-16,16-16h191.7c8.8,0,16,7.2,16,16v361.9
		C729.7,919.3,722.5,926.5,713.7,926.5z"/>
	<rect x="516.4" y="563" width="203" height="334.6"/>
	<path fill="none" stroke="#494949" stroke-width="2.75" stroke-miterlimit="10" d="M713.7,926.5H522c-8.8,0-16-7.2-16-16V548.6
		c0-8.8,7.2-16,16-16h191.7c8.8,0,16,7.2,16,16v361.9C729.7,919.3,722.5,926.5,713.7,926.5z"/>
	<path opacity="0.79" fill="none" stroke="#FFFFFF" stroke-width="0.75" stroke-miterlimit="10" d="M713.7,926.5H522
		c-8.8,0-16-7.2-16-16V548.6c0-8.8,7.2-16,16-16h191.7c8.8,0,16,7.2,16,16v361.9C729.7,919.3,722.5,926.5,713.7,926.5z"/>
	<rect x="597.2" y="548.1" fill="none" width="43" height="9.6"/>
	<text transform="matrix(1 0 0 1 597.2436 556.3916)" fill="#545151" font-family="'Roboto-Medium'" font-size="11px">DEMERE</text>
	<path opacity="0.26" fill="#EFEFEF" d="M591.4,542.2l-1.8,6.9c17.6,4.4,35.1,8.8,52.7,13.2c0.5-2.1,1-4.3,1.5-6.4
		C626.2,551.4,608.8,546.8,591.4,542.2z"/>
	<path fill="#EFEFEF" d="M663.4,523.5"/>
	<path opacity="0.23" fill="#FFFFFF" d="M593.5,544.6c-0.3,1.2-0.7,2.3-1,3.5c17.6,4.4,35.1,8.8,52.7,13.2c0.3-1.1,0.6-2.1,1-3.2
		C628.6,553.6,611.1,549.1,593.5,544.6z"/>
	<path fill="#F7F7F7" stroke="#B7B2B2" stroke-width="2" stroke-miterlimit="10" d="M642.6,917h-33.3c-3,0-5.5-2.5-5.5-5.5v0
		c0-3,2.5-5.5,5.5-5.5h33.3c3,0,5.5,2.5,5.5,5.5v0C648.2,914.5,645.7,917,642.6,917z"/>
	<path fill="none" stroke="#F9F9F9" stroke-width="0.25" stroke-miterlimit="10" d="M642.8,917h-33.3c-3,0-5.5-2.5-5.5-5.5v0
		c0-3,2.5-5.5,5.5-5.5h33.3c3,0,5.5,2.5,5.5,5.5v0C648.4,914.5,645.9,917,642.8,917z"/>
</g>
<g id="Phone_Details">
	<path fill="#A8A8A8" d="M635.6,544.4h-35.4c-1,0-1.8-0.8-1.8-1.8l0,0c0-1,0.8-1.8,1.8-1.8h35.4c1,0,1.8,0.8,1.8,1.8l0,0
		C637.4,543.6,636.5,544.4,635.6,544.4z"/>
	<ellipse cx="600.4" cy="542.6" rx="0.4" ry="0.4"/>
	<circle cx="601.9" cy="542.6" r="0.4"/>
	<ellipse cx="603.4" cy="542.6" rx="0.4" ry="0.4"/>
	<circle cx="604.9" cy="542.6" r="0.4"/>
	<ellipse cx="606.4" cy="542.6" rx="0.4" ry="0.4"/>
	<circle cx="607.9" cy="542.6" r="0.4"/>
	<ellipse cx="609.4" cy="542.6" rx="0.4" ry="0.4"/>
	<circle cx="610.9" cy="542.6" r="0.4"/>
	<ellipse cx="612.4" cy="542.6" rx="0.4" ry="0.4"/>
	<circle cx="613.9" cy="542.6" r="0.4"/>
	<ellipse cx="615.4" cy="542.6" rx="0.4" ry="0.4"/>
	<circle cx="616.9" cy="542.6" r="0.4"/>
	<ellipse cx="618.4" cy="542.6" rx="0.4" ry="0.4"/>
	<circle cx="619.9" cy="542.6" r="0.4"/>
	<ellipse cx="621.4" cy="542.6" rx="0.4" ry="0.4"/>
	<circle cx="622.9" cy="542.6" r="0.4"/>
	<ellipse cx="624.4" cy="542.6" rx="0.4" ry="0.4"/>
	<circle cx="625.9" cy="542.6" r="0.4"/>
	<ellipse cx="627.4" cy="542.6" rx="0.4" ry="0.4"/>
	<circle cx="628.9" cy="542.6" r="0.4"/>
	<ellipse cx="630.4" cy="542.6" rx="0.4" ry="0.4"/>
	<circle cx="631.9" cy="542.6" r="0.4"/>
	<ellipse cx="633.4" cy="542.6" rx="0.4" ry="0.4"/>
	<circle cx="634.9" cy="542.6" r="0.4"/>
	<ellipse cx="645.1" cy="542.2" rx="2.5" ry="2.4"/>
	<ellipse cx="652.8" cy="541.5" rx="3.2" ry="3.1"/>
	<ellipse cx="706.8" cy="544.5" rx="2.3" ry="2.3"/>
	<circle fill="#303030" cx="706.8" cy="544.5" r="2.1"/>
	<ellipse cx="706.8" cy="544.6" rx="1.8" ry="1.7"/>
	<ellipse opacity="0.24" fill="#7BC64B" cx="706.1" cy="544.4" rx="0.9" ry="0.9"/>
	<ellipse opacity="0.48" fill="#221189" cx="706.8" cy="545.2" rx="0.8" ry="0.8"/>
	<ellipse opacity="0.1" fill="#FFFFFF" cx="707" cy="544.5" rx="1.3" ry="1.3"/>
</g>
<g id="Screen">
	<rect x="523" y="568" fill="#BC5858" width="192" height="324"/>
</g>
<g id="Screen_Glare">
	<path opacity="0.39" fill="#FFFFFF" d="M715,568c-57.5,100.2-185.4,316.3-191.8,324.2c-0.1-108.1-0.1-216.1-0.2-324.2H715z"/>
	<linearGradient id="SVGID_1_" gradientUnits="userSpaceOnUse" x1="523" y1="730" x2="715" y2="730">
		<stop  offset="0" style="stop-color:#FFFFFF"/>
		<stop  offset="1" style="stop-color:#FF5559"/>
	</linearGradient>
	<rect x="523" y="568" opacity="0.26" fill="url(#SVGID_1_)" width="192" height="324"/>
	<polygon opacity="0.1" fill="#FFFFFF" points="596.1,555.8 596,551.5 643.3,551.4 643.3,555.4 	"/>
</g>
</svg>
