<?xml version="1.0" encoding="utf-8"?>
<!-- Generator: Adobe Illustrator 19.1.0, SVG Export Plug-In . SVG Version: 6.00 Build 0)  -->
<svg version="1.1" xmlns="http://www.w3.org/2000/svg" xmlns:xlink="http://www.w3.org/1999/xlink" x="0px" y="0px"
	 viewBox="0 0 800 800" style="enable-background:new 0 0 800 800;" xml:space="preserve">
<style type="text/css">
	.st0{fill:#FFFFFF;}
	.st1{fill:#E2E2E2;}
	.st2{fill:#D6D6D6;}
	.st3{fill:#EDEDED;}
	.st4{fill:#FBFBFB;}
	.st5{fill:#15304C;}
	.st6{fill:#12263F;}
	.st7{fill:#828282;}
	.st8{fill:#191919;}
	.st9{fill:#0A0A0A;}
	.st10{fill:#D8D8D8;}
	.st11{fill:#547043;}
	.st12{fill:#2C4C11;}
	.st13{fill:#4B6636;}
	.st14{fill:#446031;}
	.st15{fill:#5C664E;}
	.st16{fill:#6A7756;}
</style>
<g id="Background">
	<rect x="0" y="0" class="st0" width="800" height="800"/>
</g>
<g id="Grid">
</g>
<g id="tshirt">
	<path class="st1" d="M230.4,171.2c8.1,1.7,18.2,3.1,29.8,3.2c11.2,0.1,20.9-1.1,28.8-2.5c-0.9,3.4-1.9,6.8-2.8,10.1
		c-3.1,2.2-13.2,8.7-27.3,8c-11.5-0.6-19.6-5.7-22.9-8C234.1,178.4,232.3,174.8,230.4,171.2z"/>
	<path class="st2" d="M229.4,174.2c8,1.7,18,3.2,29.7,3.3c11.3,0.1,21.1-1.1,28.9-2.7c-0.9,3.4-1.9,6.8-2.8,10.2
		c-3.1,2.2-13.2,8.7-27.3,8c-11.5-0.6-19.6-5.7-22.9-8C233.1,181.4,231.3,177.8,229.4,174.2z"/>
	<path class="st3" d="M185.8,186.3c-4.3,18.1-8.7,36.2-13,54.2c9.9,1.2,19.8,2.5,29.8,3.7c0-2.6,0-5.1,0.1-7.7
		C197,219.8,191.4,203.1,185.8,186.3z"/>
	<path class="st3" d="M328.4,187.6c-5.6,16.4-11.1,32.9-16.7,49.3c0,2.3,0,4.7,0,7c10.2-1.1,20.3-2.2,30.5-3.4
		C337.5,222.9,332.9,205.3,328.4,187.6z"/>
	<path class="st3" d="M185.8,186.3c2.8,8.3,5.5,16.6,8.3,25.1c2.7,8.4,5.4,16.8,7.9,25.1V345h109.5c0.1-36,0.1-72.1,0.2-108.1
		c0.1-0.3,8.2-24.3,8.3-24.6c0.1-0.3,8.2-24.3,8.3-24.6c-2.8-3.4-12-13.8-27-16c-5.2-0.7-9.7-0.3-13.2,0.4
		c-6.3,10.2-17.5,16.3-29.4,16c-18.1-0.6-27.2-15.8-27.8-16.7c-4.2-0.8-10-1.4-16.8-0.4C199,173.4,189.4,182.6,185.8,186.3z"/>
	<path class="st4" d="M228.2,170.9c1.4,2.4,3.6,5.7,6.9,9c1.3,1.3,3.9,3.8,7.9,6c7.5,4.2,14.9,4.5,18.9,4.3
		c2.6-0.1,6.6-0.6,11.1-2.3c1.9-0.7,7.2-3,12.1-8.2c2.8-3,4.6-5.9,5.6-8c-0.9,0.1-1.7,0.2-2.6,0.3c-1.4,2.3-3.4,5.1-6.4,7.7
		c-2.7,2.4-5.2,3.8-6.3,4.4c-0.9,0.5-3.3,1.7-6.6,2.6c-1.7,0.5-4.6,1.1-8.3,1.2c-4.1,0.1-7.1-0.5-8-0.7c-1.2-0.3-4.4-1.1-8.2-3.1
		c-1-0.5-4.4-2.4-7.9-5.9c-2.5-2.4-4.3-4.9-5.5-7c-0.5-0.1-0.9-0.2-1.4-0.2C229.1,171,228.6,170.9,228.2,170.9z"/>
</g>
<g id="pants">
	<path class="st5" d="M311.9,433.1c-18.5-1.1-36.9-2.2-55.4-3.3c-1.4,39.3-1.8,59-1.3,59c0,0,0,0,0,0c1.2,2,2.4,3.9,3.6,5.9
		c1.3,2.5,2.7,5,4,7.5l0,0l0,0l0,0c1.8,3.3,3.7,6.6,5.5,9.8c2.5,4.4,5.1,11.3,7.2,19.5c2.5,9.6,2.9,17.3,3.1,21.2
		c0.9,18.8,2.5,51.3,4.2,92.8c0.1,0.2,0.3,1.3,1.4,2c0.9,0.5,1.7,0.5,2,0.5c8.5,0.1,16.9,0.2,25.4,0.3c0.3,0,1.4,0.1,2.4-0.7
		c0.7-0.5,1-1.2,1.1-1.5c0.2-4.8,0.2-9.6,0.4-14.3c0.1-6.3,0.3-12.5,0.3-18.8v0c0-29.5,0-46-0.1-64.2c0,0-0.2-54.1-1.6-84.3
		c-0.2-4-0.6-7.9-0.6-7.9c-0.1-0.8-0.1-1.3-0.2-1.5c-0.5-4.1-1.1-7.4-1.5-9.7C312,443.3,311.9,435.1,311.9,433.1z"/>
	<path class="st5" d="M203.3,433.1c18.5-1.1,36.9-2.2,55.4-3.3c1.4,39.3,1.8,59,1.3,59c0,0,0,0,0,0c-1.2,2-2.4,3.9-3.6,5.9
		c-1.3,2.5-2.7,5-4,7.5l0,0l0,0l0,0c-1.8,3.3-3.7,6.6-5.5,9.8c-2.5,4.4-5.1,11.3-7.2,19.5c-2.5,9.6-2.9,17.3-3.1,21.2
		c-0.9,18.8-2.5,51.3-4.2,92.8c-0.1,0.2-0.3,1.3-1.4,2c-0.9,0.5-1.7,0.5-2,0.5c-8.5,0.1-16.9,0.2-25.4,0.3c-0.3,0-1.4,0.1-2.4-0.7
		c-0.7-0.5-1-1.2-1.1-1.5c-0.2-4.8-0.3-9.6-0.5-14.3c-0.1-6.3-0.3-12.5-0.4-18.8v0c0-29.5,0.1-46,0.2-64.2c0,0,0.2-54.1,1.7-84.3
		c0.2-4,0.6-7.9,0.6-7.9c0.1-0.8,0.2-1.3,0.2-1.5c0.5-4.1,1.1-7.4,1.5-9.7C203.2,443.3,203.3,435.1,203.3,433.1z"/>
	<path class="st6" d="M203.3,433.1c5.3,1.5,12.8,3.3,21.8,4.6c13.5,2,23.9,1.9,33.3,1.8c16.2-0.2,28.2-1.8,31.7-2.3
		c8.8-1.2,16.2-2.8,22-4.2c-15.7-1.9-33.4-3.2-52.8-3.3C238.5,429.7,219.8,431.1,203.3,433.1z"/>
</g>
<g id="sneakers">
	<g>
		<path class="st7" d="M516.7,516.6c-0.8-0.5-2.1-1.3-3.7-2.1c-7.6-3.7-14.2-3.2-18.8-3.3c0,0-14.3-0.3-42.5-10.3
			c-0.7-0.3-3.2-1.2-4.1-0.2c-0.5,0.5-0.3,1.3-0.3,1.7c0.1,2.3,0.7,5.1,2.1,7.9c5.4,10.9,18.9,12.8,20.6,13
			c17.1,2.1,34.3,4.2,51.4,6.2C519.9,525.2,518.3,520.9,516.7,516.6z"/>
		<path class="st8" d="M461.4,562.3c15.2,6.4,23.8,7.4,43.5,11.9c37.3,8.5,42.3,13.4,68.1,16c0,0,21.8,1.7,35.3-3.7
			c4.4-1.8,16.1-5.9,16.5-13c0.2-3.3-2.2-6.2-4.2-8.1c-3.4-1.6-6.3-2.9-8.6-3.9c-1-0.4-4.8-2-10.2-3.9c-3.3-1.2-4.8-1.6-8.6-2.8
			c-8.9-2.9-13.3-4.3-17.7-6.2c-5.6-2.4-10-4.9-11.9-5.9c-3-1.7-5.1-3-5.7-3.4c-2.3-1.5-4.2-2.8-7.1-4.9c-3.9-2.9-7.1-5.3-9.7-7.4
			c-7.4-5.8-11.1-8.7-11.7-9.2c-3.6-3.7-5.5-6.7-8.4-6.4c-1.6,0.2-3.5,1.4-3.9,1.7c-1.3,0.9-2.3,1.9-2.7,2.4
			c-0.2,0.2-0.3,0.3-0.3,0.4c0,0,0,0,0,0c-9.9,12.6-17.1,12.2-17.1,12.2c-3.6-0.2-3.8-2.6-9.8-3.8c-3-0.6-5.6-0.5-7.3-0.3
			c-7.2-0.3-11.6-2.5-14.2-4.4c-2.2-1.6-2.9-2.8-5.8-4.3c-3.6-1.9-5.3-1.5-8.6-3.8c-1.7-1.2-3.4-2.3-4.1-4.4c-0.8-2.4,0-4.6,0.4-5.5
			c-2.3,5-4.7,10.9-6.6,17.6c-3.3,11.5-4.3,21.8-4.5,29.9C442,552.6,450.5,557.6,461.4,562.3z"/>
		<path class="st9" d="M626.2,571.6c-1.4-3-4.2-4.4-9.3-6.6c-6.8-2.9-10.2-4.3-12.9-5c0,0-15.5-4.1-31.4-10.7
			c-8.5-3.6-14.1-7.3-25.2-15.1c-7.7-5.4-18-13.2-29.4-23.6c-5.4-2.2-11.4-1.3-15.4,2.4c-4.6,4.1-4.6,9.9-4.6,10.8
			c1.4,1,2.9,2,4.3,3c34.9,36.9,68.8,55.9,82.5,57.9c1.8,0.3,9.2,0.3,23.9,0.3c1,0,6.4,0,12.3-2.7c3.4-1.5,4.7-2.8,5.3-4.3
			C627.7,575.1,626.5,572.2,626.2,571.6z"/>
		<path class="st0" d="M514.6,523.4c5.4-0.6,10.7-1.3,16.1-1.9c0.4,0.3,0.8,0.6,1.2,0.9c-5.4,0.8-10.8,1.6-16.2,2.4
			C515.2,524.3,514.9,523.9,514.6,523.4z"/>
		<path class="st0" d="M526.6,532.4c5.4-0.6,10.7-1.3,16.1-1.9c0.4,0.3,0.8,0.6,1.2,0.9c-5.4,0.8-10.8,1.6-16.2,2.4
			C527.2,533.3,526.9,532.9,526.6,532.4z"/>
		<path class="st0" d="M556.6,549.4c4.2-0.5,8.5-1.1,12.7-1.6c0.6,0.3,1.2,0.5,1.8,0.8c-4.5,0.7-9,1.5-13.6,2.2
			C557.2,550.3,556.9,549.9,556.6,549.4z"/>
		<path class="st0" d="M540.6,542.4c5.2-0.7,10.4-1.4,15.7-2.1c0.5,0.3,1,0.6,1.5,0.9c-5.4,0.9-10.8,1.7-16.2,2.6
			C541.2,543.3,540.9,542.9,540.6,542.4z"/>
		<path class="st0" d="M567.6,556.8c5.9-0.9,11.7-1.9,17.6-2.8c0.7,0.3,1.4,0.5,2.2,0.8c-6.1,1.2-12.3,2.5-18.4,3.7
			C568.5,558,568,557.4,567.6,556.8z"/>
		<path class="st8" d="M461.4,562.3c15.2,6.4,23.8,7.4,43.5,11.9c24.7,5.6,23.8,8.5,52.2,13.7c24.6,4.5,33.6,2.8,36.6-2
			c1.5-2.4,1.5-5.6,1.5-6.7c0-9-8-15-8.7-15.4c-1.7-1.2-4.5-2.8-6.9-4.2c-5.5-3.4-9.4-4.4-13.5-6c-6.1-2.4-19-9.5-29.5-17.8
			c-14.3-11.2-19.5-19.9-27.8-18.4c-1.4,0.3-1.7,0.6-2.9,1.1c0,0-0.5,0.3-1.8,0.7c-6.7,2.2-18.7,0.7-18.7,0.7
			c-5.4-0.8-9.9-1.7-13.2-2.4c-3.3-0.8-6.8-1.7-10.8-3.1c-2.3-0.8-5.5-2.1-8.9-4.5c-2-1.5-3.1-2.8-3.8-4c-0.5-0.8-1.2-2.2-1.2-4
			c0-0.3,0-0.6,0.1-0.8c0,0.1-0.1,0.1-0.1,0.2c-3.9,7.5-5.5,13.8-6.6,18.1c-3.3,12.7-4.3,27.7-4.5,29.9
			C442,552.6,450.5,557.6,461.4,562.3z"/>
		<path class="st10" d="M436.3,541.2c-0.6,0.2-1,1-1.6,4.7c-1.1,6.6-0.5,7.6-0.1,8.1c0.4,0.5,1.2,1.1,2.8,2.3
			c0.3,0.2,1.3,0.9,2.9,1.8c1.5,0.8,2.7,1.4,3.1,1.6c2.3,1.1,9.9,4.6,20.2,9.4c0,0,21.5,8.2,46.2,13.9c2.7,0.6,4.6,1,6.5,1.4
			c3,0.5,5.3,0.9,6.5,1.1c4.5,0.7,8.9,1.4,13.4,2c11.5,1.7,15.7,2.6,24.2,3.7c0.8,0.1,8.2,1,10.2,1.1c1.5,0.1,2.8,0.2,3.6,0.3l0,0
			c1.7,0.1,4.3,0.2,7.4,0.3c19.9,0.6,28.2-1.1,32.6-2.2c9.8-2.5,11.8-5.2,12.6-6.9c1.1-2.3,1.3-5.7,0.6-8.6c-0.5-2.1-1.3-3.8-2-4.8
			c-0.4,1.2-1.2,3-2.6,4.8c-5.3,6.7-14.9,7.1-22.2,7.7c-13.7,1-21.9-0.1-21.9-0.1c-28.9-3.8-43.3-6-59.8-9.4
			c-14.2-2.9-29.1-6.8-44.3-12.8c-5.2-2.1-9.1-3.6-14.2-6.1c-13.4-6.7-20.2-10.1-21.9-11.9C438.3,542.1,437.2,540.9,436.3,541.2z"/>
		<path class="st0" d="M523.9,515.2c-2.1,1.8-4.1,3.6-6.2,5.4c-0.1,0.3-0.1,0.7,0.1,0.9c0.3,0.3,0.9,0.4,1.4,0c2-1.8,4-3.7,6.1-5.5
			c0.2-0.3,0.1-0.7-0.1-0.9C524.9,514.8,524.3,514.8,523.9,515.2z"/>
		<path class="st0" d="M534.7,524.2c-2.3,1.9-4.6,3.8-7,5.7c-0.1,0.3-0.1,0.7,0.1,0.9c0.3,0.4,1,0.4,1.6,0c2.3-1.9,4.6-3.9,6.8-5.8
			c0.2-0.3,0.1-0.7-0.1-1C535.8,523.8,535.1,523.8,534.7,524.2z"/>
		<path class="st0" d="M546.7,533.2c-2.4,2-4.8,4-7.1,6.1c-0.2,0.3-0.1,0.7,0.1,1c0.3,0.4,1,0.5,1.6,0c2.3-2.1,4.7-4.1,7-6.2
			c0.2-0.4,0.1-0.8-0.1-1C547.8,532.8,547.1,532.8,546.7,533.2z"/>
		<path class="st0" d="M559.8,542.2c-2.3,1.9-4.5,3.8-6.8,5.7c-0.1,0.3-0.1,0.7,0.1,0.9c0.3,0.4,1,0.4,1.5,0
			c2.2-1.9,4.5-3.9,6.7-5.8c0.2-0.3,0.1-0.7-0.1-1C560.8,541.8,560.2,541.8,559.8,542.2z"/>
		<path class="st0" d="M574.9,549.2c-2.1,2-4.2,4-6.4,6.1c-0.1,0.3-0.1,0.7,0.1,1c0.3,0.4,0.9,0.5,1.4,0c2.1-2.1,4.2-4.1,6.3-6.2
			c0.2-0.4,0.1-0.8-0.1-1C575.9,548.8,575.3,548.8,574.9,549.2z"/>
		<path class="st0" d="M590.5,555c-2.7,2.5-5.3,4.9-8,7.4c-0.2,0.4-0.2,0.9,0.1,1.2c0.3,0.5,1.1,0.6,1.8,0c2.6-2.5,5.2-5,7.8-7.5
			c0.2-0.4,0.2-1-0.1-1.3C591.7,554.4,591,554.4,590.5,555z"/>
		<path class="st0" d="M530.8,521.9"/>
	</g>
	<path class="st7" d="M492.7,539.6c-0.8-0.5-2.1-1.3-3.7-2.1c-7.6-3.7-14.2-3.2-18.8-3.3c0,0-14.3-0.3-42.5-10.3
		c-0.7-0.3-3.2-1.2-4.1-0.2c-0.5,0.5-0.3,1.3-0.3,1.7c0.1,2.3,0.7,5.1,2.1,7.9c5.4,10.9,18.9,12.8,20.6,13
		c17.1,2.1,34.3,4.2,51.4,6.2C495.9,548.2,494.3,543.9,492.7,539.6z"/>
	<path class="st8" d="M437.4,585.3c15.2,6.4,23.8,7.4,43.5,11.9c37.3,8.5,42.3,13.4,68.1,16c0,0,21.8,1.7,35.3-3.7
		c4.4-1.8,16.1-5.9,16.5-13c0.2-3.3-2.2-6.2-4.2-8.1c-3.4-1.6-6.3-2.9-8.6-3.9c-1-0.4-4.8-2-10.2-3.9c-3.3-1.2-4.8-1.6-8.6-2.8
		c-8.9-2.9-13.3-4.3-17.7-6.2c-5.6-2.4-10-4.9-11.9-5.9c-3-1.7-5.1-3-5.7-3.4c-2.3-1.5-4.2-2.8-7.1-4.9c-3.9-2.9-7.1-5.3-9.7-7.4
		c-7.4-5.8-11.1-8.7-11.7-9.2c-3.6-3.7-5.5-6.7-8.4-6.4c-1.6,0.2-3.5,1.4-3.9,1.7c-1.3,0.9-2.3,1.9-2.7,2.4
		c-0.2,0.2-0.3,0.3-0.3,0.4c0,0,0,0,0,0c-9.9,12.6-17.1,12.2-17.1,12.2c-3.6-0.2-3.8-2.6-9.8-3.8c-3-0.6-5.6-0.5-7.3-0.3
		c-7.2-0.3-11.6-2.5-14.2-4.4c-2.2-1.6-2.9-2.8-5.8-4.3c-3.6-1.9-5.3-1.5-8.6-3.8c-1.7-1.2-3.4-2.3-4.1-4.4c-0.8-2.4,0-4.6,0.4-5.5
		c-2.3,5-4.7,10.9-6.6,17.6c-3.3,11.5-4.3,21.8-4.5,29.9C418,575.6,426.5,580.6,437.4,585.3z"/>
	<path class="st9" d="M602.2,594.6c-1.4-3-4.2-4.4-9.3-6.6c-6.8-2.9-10.2-4.3-12.9-5c0,0-15.5-4.1-31.4-10.7
		c-8.5-3.6-14.1-7.3-25.2-15.1c-7.7-5.4-18-13.2-29.4-23.6c-5.4-2.2-11.4-1.3-15.4,2.4c-4.6,4.1-4.6,9.9-4.6,10.8c1.4,1,2.9,2,4.3,3
		c34.9,36.9,68.8,55.9,82.5,57.9c1.8,0.3,9.2,0.3,23.9,0.3c1,0,6.4,0,12.3-2.7c3.4-1.5,4.7-2.8,5.3-4.3
		C603.7,598.1,602.5,595.2,602.2,594.6z"/>
	<path class="st0" d="M490.6,546.4c5.4-0.6,10.7-1.3,16.1-1.9c0.4,0.3,0.8,0.6,1.2,0.9c-5.4,0.8-10.8,1.6-16.2,2.4
		C491.2,547.3,490.9,546.9,490.6,546.4z"/>
	<path class="st0" d="M502.6,555.4c5.4-0.6,10.7-1.3,16.1-1.9c0.4,0.3,0.8,0.6,1.2,0.9c-5.4,0.8-10.8,1.6-16.2,2.4
		C503.2,556.3,502.9,555.9,502.6,555.4z"/>
	<path class="st0" d="M532.6,572.4c4.2-0.5,8.5-1.1,12.7-1.6c0.6,0.3,1.2,0.5,1.8,0.8c-4.5,0.7-9,1.5-13.6,2.2
		C533.2,573.3,532.9,572.9,532.6,572.4z"/>
	<path class="st0" d="M516.6,565.4c5.2-0.7,10.4-1.4,15.7-2.1c0.5,0.3,1,0.6,1.5,0.9c-5.4,0.9-10.8,1.7-16.2,2.6
		C517.2,566.3,516.9,565.9,516.6,565.4z"/>
	<path class="st0" d="M543.6,579.8c5.9-0.9,11.7-1.9,17.6-2.8c0.7,0.3,1.4,0.5,2.2,0.8c-6.1,1.2-12.3,2.5-18.4,3.7
		C544.5,581,544,580.4,543.6,579.8z"/>
	<path class="st8" d="M437.4,585.3c15.2,6.4,23.8,7.4,43.5,11.9c24.7,5.6,23.8,8.5,52.2,13.7c24.6,4.5,33.6,2.8,36.6-2
		c1.5-2.4,1.5-5.6,1.5-6.7c0-9-8-15-8.7-15.4c-1.7-1.2-4.5-2.8-6.9-4.2c-5.5-3.4-9.4-4.4-13.5-6c-6.1-2.4-19-9.5-29.5-17.8
		c-14.3-11.2-19.5-19.9-27.8-18.4c-1.4,0.3-1.7,0.6-2.9,1.1c0,0-0.5,0.3-1.8,0.7c-6.7,2.2-18.7,0.7-18.7,0.7
		c-5.4-0.8-9.9-1.7-13.2-2.4c-3.3-0.8-6.8-1.7-10.8-3.1c-2.3-0.8-5.5-2.1-8.9-4.5c-2-1.5-3.1-2.8-3.8-4c-0.5-0.8-1.2-2.2-1.2-4
		c0-0.3,0-0.6,0.1-0.8c0,0.1-0.1,0.1-0.1,0.2c-3.9,7.5-5.5,13.8-6.6,18.1c-3.3,12.7-4.3,27.7-4.5,29.9
		C418,575.6,426.5,580.6,437.4,585.3z"/>
	<path class="st10" d="M412.3,564.2c-0.6,0.2-1,1-1.6,4.7c-1.1,6.6-0.5,7.6-0.1,8.1c0.4,0.5,1.2,1.1,2.8,2.3
		c0.3,0.2,1.3,0.9,2.9,1.8c1.5,0.8,2.7,1.4,3.1,1.6c2.3,1.1,9.9,4.6,20.2,9.4c0,0,21.5,8.2,46.2,13.9c2.7,0.6,4.6,1,6.5,1.4
		c3,0.5,5.3,0.9,6.5,1.1c4.5,0.7,8.9,1.4,13.4,2c11.5,1.7,15.7,2.6,24.2,3.7c0.8,0.1,8.2,1,10.2,1.1c1.5,0.1,2.8,0.2,3.6,0.3l0,0
		c1.7,0.1,4.3,0.2,7.4,0.3c19.9,0.6,28.2-1.1,32.6-2.2c9.8-2.5,11.8-5.2,12.6-6.9c1.1-2.3,1.3-5.7,0.6-8.6c-0.5-2.1-1.3-3.8-2-4.8
		c-0.4,1.2-1.2,3-2.6,4.8c-5.3,6.7-14.9,7.1-22.2,7.7c-13.7,1-21.9-0.1-21.9-0.1c-19.1-2-35.1-4.5-47-6.7
		c-14.4-2.6-25.3-4.6-39.6-8.9c-13.6-4.1-24.7-8.6-32.6-12.2c-13.5-6.7-19.1-10.4-21.1-12.4C414.4,565.1,413.2,563.9,412.3,564.2z"
		/>
	<path class="st0" d="M499.9,538.2c-2.1,1.8-4.1,3.6-6.2,5.4c-0.1,0.3-0.1,0.7,0.1,0.9c0.3,0.3,0.9,0.4,1.4,0c2-1.8,4-3.7,6.1-5.5
		c0.2-0.3,0.1-0.7-0.1-0.9C500.9,537.8,500.3,537.8,499.9,538.2z"/>
	<path class="st0" d="M510.7,547.2c-2.3,1.9-4.6,3.8-7,5.7c-0.1,0.3-0.1,0.7,0.1,0.9c0.3,0.4,1,0.4,1.6,0c2.3-1.9,4.6-3.9,6.8-5.8
		c0.2-0.3,0.1-0.7-0.1-1C511.8,546.8,511.1,546.8,510.7,547.2z"/>
	<path class="st0" d="M522.7,556.2c-2.4,2-4.8,4-7.1,6.1c-0.2,0.3-0.1,0.7,0.1,1c0.3,0.4,1,0.5,1.6,0c2.3-2.1,4.7-4.1,7-6.2
		c0.2-0.4,0.1-0.8-0.1-1C523.8,555.8,523.1,555.8,522.7,556.2z"/>
	<path class="st0" d="M535.8,565.2c-2.3,1.9-4.5,3.8-6.8,5.7c-0.1,0.3-0.1,0.7,0.1,0.9c0.3,0.4,1,0.4,1.5,0c2.2-1.9,4.5-3.9,6.7-5.8
		c0.2-0.3,0.1-0.7-0.1-1C536.8,564.8,536.2,564.8,535.8,565.2z"/>
	<path class="st0" d="M550.9,572.2c-2.1,2-4.2,4-6.4,6.1c-0.1,0.3-0.1,0.7,0.1,1c0.3,0.4,0.9,0.5,1.4,0c2.1-2.1,4.2-4.1,6.3-6.2
		c0.2-0.4,0.1-0.8-0.1-1C551.9,571.8,551.3,571.8,550.9,572.2z"/>
	<path class="st0" d="M566.5,578c-2.7,2.5-5.3,4.9-8,7.4c-0.2,0.4-0.2,0.9,0.1,1.2c0.3,0.5,1.1,0.6,1.8,0c2.6-2.5,5.2-5,7.8-7.5
		c0.2-0.4,0.2-1-0.1-1.3C567.7,577.4,567,577.4,566.5,578z"/>
	<path class="st0" d="M506.8,544.9"/>
</g>
<g id="jacket">
	<path class="st11" d="M447.8,188.2c-8.4,53.8-16.8,107.6-25.2,161.4c3.2,1,7.3,1.9,12.2,2.2c5.6,0.4,10.3-0.2,13.9-0.8
		c-0.2,2.5-0.4,13.7-0.3,16.8c46.1,0.1,92.2,0.3,138.4,0.4c-0.1-3.1-0.3-6.2-0.4-9.3c-0.1-2.5-0.2-4.9-0.3-7.4
		c3.5,0.4,7.9,0.6,12.8,0.3c4.7-0.3,8.9-1.1,12.2-1.9c-6.7-53.1-13.3-106.1-20-159.2c-3.4-2.4-7.3-4.8-11.8-7.2
		c-7.4-3.8-14.3-6.3-20.2-7.9c-1.3-2.4-3-5.1-5.2-8c-1.9-2.4-3.7-4.4-5.4-6c-8.2-1.7-18.4-3.2-30.2-3.3c-12.2-0.2-22.7,1.1-31.2,2.7
		c-1.7,1.8-3.3,3.8-5,5.9c-2.5,3-4.7,5.9-6.7,8.8c-5,1.4-10.9,3.4-17.2,6.5C454.3,184.2,450.8,186.2,447.8,188.2z"/>
	<path class="st12" d="M487.7,166c9,10.5,18,20.9,27,31.4c1.3,0.2,2.5,0.3,3.8,0.5c1.2-0.1,2.5-0.2,3.7-0.3
		c8.9-10.5,17.8-21.1,26.7-31.6c-8.4-1.6-18.8-2.8-30.6-2.8C506.5,163.2,496.2,164.4,487.7,166z"/>
	<rect x="458" y="307" class="st13" width="40" height="49"/>
	<polygon class="st14" points="478,324.3 458,317.7 458,307 498,307 498,318.1 	"/>
	<ellipse class="st15" cx="478.2" cy="321.8" rx="1.8" ry="1.7"/>
	<ellipse class="st16" cx="478.2" cy="321.9" rx="1.2" ry="1.1"/>
	<g>
		<rect x="537" y="307" class="st13" width="40" height="49"/>
		<polygon class="st14" points="557,324.3 537,317.7 537,307 577,307 577,318.1 		"/>
		<ellipse class="st15" cx="557.2" cy="321.8" rx="1.8" ry="1.7"/>
		<ellipse class="st16" cx="557.2" cy="321.9" rx="1.2" ry="1.1"/>
	</g>
	<g>
		<polygon class="st13" points="506,230 506,261 498,261 493.6,245.5 498,230 		"/>
		<ellipse class="st15" cx="497.2" cy="245.5" rx="1.8" ry="1.7"/>
		<ellipse class="st16" cx="497.2" cy="245.6" rx="1.2" ry="1.2"/>
	</g>
	<g>
		<polygon class="st13" points="531,230 531,261 538.6,261 543,245.5 538.6,230 		"/>
		<ellipse class="st15" cx="539.4" cy="245.5" rx="1.8" ry="1.7"/>
		<ellipse class="st16" cx="539.5" cy="245.6" rx="1.2" ry="1.2"/>
	</g>
	<path class="st13" d="M514.7,197.3c0.1,56.9,0.2,113.8,0.3,170.7c2.5,0,5,0.1,7.5,0.1c0-56.9,0-113.8,0-170.7
		C519.9,197.4,517.3,197.3,514.7,197.3z"/>
</g>
</svg>
